<svg xmlns="http://www.w3.org/2000/svg" xmlns:xlink="http://www.w3.org/1999/xlink" width="500" zoomAndPan="magnify" viewBox="0 0 375 374.999991" height="500" preserveAspectRatio="xMidYMid meet" version="1.0"><defs><clipPath id="82dcbb5b49"><path d="M 52 77 L 310 77 L 310 300.75 L 52 300.75 Z M 52 77 " clip-rule="nonzero"/></clipPath><clipPath id="6765021f79"><path d="M 97 292 L 109 292 L 109 300.75 L 97 300.75 Z M 97 292 " clip-rule="nonzero"/></clipPath><clipPath id="88ebf3de7b"><path d="M 62 109 L 323.296875 109 L 323.296875 300 L 62 300 Z M 62 109 " clip-rule="nonzero"/></clipPath></defs><path fill="#ff2273" d="M 281.765625 127.210938 L 281.585938 126.785156 L 280.800781 126.648438 C 277.675781 111.496094 265.410156 99.371094 249.539062 95.425781 C 246.175781 90.496094 241.914062 84.402344 240.476562 83 C 239.175781 81.71875 235.949219 80.929688 231.777344 80.828125 C 231.492188 80.46875 231.238281 80.167969 231.0625 79.996094 C 229.339844 78.308594 220.898438 77.660156 213.027344 80.878906 C 205.160156 84.09375 202.945312 87.15625 202.359375 89.773438 C 202.277344 90.160156 202.234375 90.761719 202.21875 91.472656 C 200.566406 93.210938 199.535156 95.050781 199.09375 97.035156 C 198.511719 99.664062 199.171875 108.03125 199.648438 113.011719 L 120.238281 137.070312 L 119.714844 137.339844 C 117.066406 135.996094 114.261719 134.890625 111.328125 134.054688 C 108.28125 129.097656 104.597656 123.273438 103.296875 121.867188 C 102.054688 120.523438 98.816406 119.578125 94.71875 119.277344 C 94.445312 118.898438 94.207031 118.585938 94.039062 118.40625 C 92.402344 116.636719 84.003906 115.578125 75.984375 118.40625 C 67.964844 121.238281 65.605469 124.183594 64.894531 126.773438 C 64.792969 127.15625 64.71875 127.75 64.671875 128.460938 C 62.933594 130.117188 61.8125 131.902344 61.277344 133.863281 C 60.558594 136.496094 60.828125 145.09375 61.058594 150.0625 C 56.394531 156.214844 53.464844 163.574219 52.917969 171.542969 C 52.917969 171.542969 58.285156 259.859375 60.035156 273.121094 C 62.121094 288.886719 72.453125 298.949219 88.390625 299.871094 C 89.222656 299.921875 98.894531 299.816406 102.355469 298.507812 C 112.289062 294.757812 119.074219 285.839844 121.882812 272.921875 C 126.519531 251.589844 136.472656 210.21875 139.574219 207.335938 C 142.597656 204.527344 162.640625 198.027344 175.902344 193.792969 L 180.714844 192.203125 C 186.097656 190.472656 191.476562 188.644531 196.292969 187.03125 C 203.875 184.492188 210.421875 182.289062 212.71875 181.828125 C 213.890625 181.59375 215.347656 181.296875 216.921875 181.296875 C 220.980469 181.296875 224.335938 183.34375 227.167969 187.5625 C 237.03125 202.253906 261.652344 236.417969 277.179688 236.417969 C 277.394531 236.417969 277.609375 236.410156 277.824219 236.398438 C 297.738281 235.1875 308.707031 225.464844 308.707031 209.023438 C 308.710938 190.613281 282.867188 129.792969 281.765625 127.210938 Z M 281.765625 127.210938 " fill-opacity="1" fill-rule="nonzero"/><g clip-path="url(#82dcbb5b49)"><path fill="#000000" d="M 88.984375 300.75 C 88.664062 300.75 88.441406 300.746094 88.339844 300.738281 C 72.230469 299.804688 61.328125 289.523438 59.175781 273.234375 C 57.441406 260.09375 52.105469 172.476562 52.054688 171.59375 C 52.585938 163.691406 55.394531 156.199219 60.175781 149.789062 C 59.902344 143.769531 59.738281 136.207031 60.4375 133.632812 C 60.984375 131.628906 62.125 129.761719 63.828125 128.066406 C 63.882812 127.40625 63.957031 126.90625 64.058594 126.542969 C 65.058594 122.882812 68.757812 120.035156 75.695312 117.585938 C 79.90625 116.101562 83.773438 115.792969 86.277344 115.792969 C 90.300781 115.792969 93.519531 116.566406 94.679688 117.816406 C 94.808594 117.960938 94.984375 118.175781 95.183594 118.441406 C 99.417969 118.800781 102.597656 119.828125 103.9375 121.277344 C 105.019531 122.445312 107.695312 126.492188 111.894531 133.3125 C 114.589844 134.101562 117.214844 135.125 119.714844 136.367188 L 119.84375 136.300781 L 198.714844 112.386719 C 198.175781 106.535156 197.6875 99.363281 198.25 96.84375 C 198.707031 94.785156 199.722656 92.910156 201.359375 91.121094 C 201.382812 90.460938 201.433594 89.957031 201.511719 89.589844 C 202.339844 85.878906 205.894531 82.855469 212.699219 80.074219 C 216.398438 78.5625 220.621094 77.726562 224.589844 77.726562 C 227.972656 77.726562 230.617188 78.34375 231.671875 79.375 C 231.8125 79.507812 231.996094 79.71875 232.203125 79.972656 C 234.871094 80.066406 239.195312 80.519531 241.089844 82.378906 C 242.265625 83.527344 245.285156 87.660156 250.070312 94.664062 C 265.929688 98.726562 278.195312 110.917969 281.527344 125.894531 L 282.199219 126.011719 L 282.566406 126.871094 C 283.667969 129.457031 309.582031 190.445312 309.582031 209.023438 C 309.582031 225.988281 298.320312 236.019531 277.878906 237.261719 C 277.652344 237.277344 277.417969 237.285156 277.183594 237.285156 C 261.230469 237.285156 236.390625 202.847656 226.453125 188.042969 C 223.789062 184.085938 220.675781 182.164062 216.921875 182.164062 C 215.453125 182.164062 214.054688 182.441406 212.933594 182.667969 C 210.742188 183.109375 204.597656 185.164062 197.488281 187.546875 L 193.472656 188.894531 C 189.496094 190.230469 185.242188 191.660156 180.980469 193.027344 L 176.175781 194.617188 C 166.308594 197.769531 143.222656 205.136719 140.171875 207.972656 C 137.53125 210.421875 128.1875 248.042969 122.738281 273.105469 C 119.847656 286.386719 112.90625 295.453125 102.667969 299.320312 C 98.921875 300.734375 89.082031 300.75 88.984375 300.75 Z M 86.273438 117.53125 C 83.90625 117.53125 80.25 117.824219 76.273438 119.226562 C 67.929688 122.171875 66.261719 125.074219 65.734375 127 C 65.679688 127.210938 65.597656 127.644531 65.539062 128.519531 L 65.515625 128.855469 L 65.273438 129.089844 C 63.644531 130.644531 62.613281 132.277344 62.117188 134.09375 C 61.613281 135.933594 61.546875 141.742188 61.929688 150.023438 L 61.941406 150.335938 L 61.75 150.585938 C 57.058594 156.78125 54.304688 164.046875 53.789062 171.601562 C 53.84375 172.371094 59.171875 259.925781 60.898438 273.007812 C 62.964844 288.636719 73.003906 298.113281 88.441406 299.003906 C 88.527344 299.011719 88.714844 299.011719 88.984375 299.011719 C 91.46875 299.011719 99.203125 298.773438 102.054688 297.695312 C 111.714844 294.046875 118.277344 285.417969 121.035156 272.734375 C 123.878906 259.671875 135.25 210.167969 138.984375 206.699219 C 141.917969 203.976562 158.335938 198.492188 175.636719 192.96875 L 180.441406 191.375 C 184.699219 190.011719 188.949219 188.582031 192.917969 187.246094 L 196.933594 185.898438 C 204.101562 183.5 210.292969 181.425781 212.546875 180.972656 C 213.789062 180.726562 215.28125 180.425781 216.921875 180.425781 C 221.296875 180.425781 224.882812 182.601562 227.890625 187.078125 C 237.675781 201.648438 262.066406 235.546875 277.179688 235.546875 C 277.378906 235.546875 277.574219 235.539062 277.769531 235.527344 C 297.160156 234.347656 307.839844 224.933594 307.839844 209.023438 C 307.839844 190.8125 282.113281 130.246094 280.96875 127.558594 L 280.070312 127.398438 L 279.949219 126.824219 C 276.917969 112.132812 264.898438 100.140625 249.328125 96.269531 L 249.007812 96.191406 L 248.820312 95.914062 C 244.125 89.039062 240.945312 84.675781 239.867188 83.621094 C 238.996094 82.765625 236.40625 81.8125 231.757812 81.695312 L 231.351562 81.6875 L 231.097656 81.371094 C 230.839844 81.042969 230.613281 80.769531 230.453125 80.617188 C 229.886719 80.0625 227.808594 79.464844 224.585938 79.464844 C 222.417969 79.464844 218.070312 79.753906 213.355469 81.683594 C 205.167969 85.03125 203.644531 88.011719 203.207031 89.964844 C 203.160156 90.171875 203.101562 90.613281 203.085938 91.488281 L 203.078125 91.828125 L 202.84375 92.070312 C 201.296875 93.699219 200.347656 95.382812 199.941406 97.222656 C 199.527344 99.066406 199.738281 104.792969 200.507812 112.929688 L 200.574219 113.636719 L 120.492188 137.902344 L 119.71875 138.316406 L 119.324219 138.117188 C 116.707031 136.785156 113.9375 135.699219 111.089844 134.890625 L 110.765625 134.796875 L 110.589844 134.507812 C 106.46875 127.808594 103.652344 123.527344 102.660156 122.457031 C 101.609375 121.316406 98.539062 120.429688 94.65625 120.144531 L 94.253906 120.113281 L 94.015625 119.789062 C 93.769531 119.445312 93.554688 119.160156 93.398438 118.996094 C 92.742188 118.285156 90.019531 117.53125 86.273438 117.53125 Z M 86.273438 117.53125 " fill-opacity="1" fill-rule="nonzero"/></g><path fill="#000000" d="M 227.171875 187.558594 C 228.5625 189.628906 230.253906 192.09375 232.15625 194.78125 C 232.59375 195.402344 233.480469 194.023438 233.515625 193.652344 C 233.644531 192.1875 232.386719 190.878906 232.074219 189.507812 C 231.664062 187.707031 233.210938 186.378906 234.992188 187.207031 C 237.550781 188.394531 239.023438 191.132812 241.433594 192.535156 C 243.96875 194.015625 246.59375 193.601562 248.945312 191.921875 C 252.238281 189.566406 253.542969 185.828125 252.558594 181.894531 C 250.851562 175.097656 246.046875 170.34375 239.851562 167.320312 C 226.652344 160.878906 210.503906 160.878906 201.429688 173.816406 C 198.484375 178.015625 196.300781 182.6875 194.683594 187.570312 C 195.21875 187.390625 195.769531 187.203125 196.292969 187.027344 C 203.875 184.492188 210.425781 182.285156 212.722656 181.824219 C 213.890625 181.589844 215.351562 181.292969 216.925781 181.292969 C 220.984375 181.296875 224.335938 183.34375 227.171875 187.558594 Z M 227.171875 187.558594 " fill-opacity="1" fill-rule="nonzero"/><path fill="#000000" d="M 293.742188 224.421875 C 287.019531 220.183594 268.265625 212.804688 269.230469 227.359375 C 269.355469 229.210938 264.90625 227.15625 264.171875 226.914062 C 263.09375 226.554688 262.007812 226.207031 260.890625 225.984375 C 260.550781 225.914062 258.402344 226.011719 258.292969 225.910156 C 265.023438 232.113281 271.671875 236.417969 277.179688 236.417969 C 277.398438 236.417969 277.613281 236.410156 277.824219 236.394531 C 287.035156 235.835938 294.308594 233.433594 299.492188 229.410156 C 297.75 227.480469 295.851562 225.746094 293.742188 224.421875 Z M 293.742188 224.421875 " fill-opacity="1" fill-rule="nonzero"/><path fill="#000000" d="M 294.726562 235.160156 L 280.558594 237.003906 L 287.984375 223.21875 Z M 294.726562 235.160156 " fill-opacity="1" fill-rule="nonzero"/><path fill="#000000" d="M 194.039062 114.710938 C 199.46875 118.550781 206.039062 120.898438 212.578125 121.804688 C 224.113281 123.402344 233.730469 120.582031 241.796875 112.035156 C 246.175781 107.394531 250.589844 102.445312 252.957031 96.433594 C 251.835938 96.058594 250.699219 95.714844 249.539062 95.425781 C 246.175781 90.496094 241.914062 84.402344 240.476562 83 C 239.175781 81.71875 235.949219 80.929688 231.777344 80.828125 C 231.492188 80.46875 231.238281 80.167969 231.0625 79.996094 C 229.339844 78.3125 220.898438 77.660156 213.027344 80.878906 C 205.160156 84.097656 202.945312 87.15625 202.359375 89.773438 C 202.277344 90.164062 202.234375 90.761719 202.21875 91.472656 C 200.566406 93.210938 199.535156 95.050781 199.09375 97.035156 C 198.511719 99.664062 199.171875 108.03125 199.648438 113.011719 Z M 194.039062 114.710938 " fill-opacity="1" fill-rule="nonzero"/><path fill="#000000" d="M 106.972656 294.242188 C 99.785156 286.15625 91.945312 276.84375 82.675781 271.082031 C 80.214844 269.550781 77.628906 268.183594 75.242188 266.53125 C 72.625 264.71875 70.617188 264.167969 69.183594 267.4375 C 68.574219 268.828125 67.417969 272.648438 65.371094 272.648438 C 63.433594 272.648438 63.070312 268.378906 62.320312 267.316406 C 61.246094 265.804688 60.304688 267.066406 59.582031 268.921875 C 59.753906 270.695312 59.90625 272.128906 60.035156 273.121094 C 62.121094 288.886719 72.453125 298.953125 88.390625 299.875 C 89.222656 299.921875 99.175781 299.753906 102.734375 298.339844 C 104.632812 297.585938 106.410156 296.644531 108.070312 295.519531 C 107.699219 295.097656 107.34375 294.664062 106.972656 294.242188 Z M 106.972656 294.242188 " fill-opacity="1" fill-rule="nonzero"/><g clip-path="url(#6765021f79)"><path fill="#000000" d="M 97.457031 300.320312 C 99.714844 299.984375 108.070312 298.496094 108.070312 298.496094 L 99.191406 292.417969 Z M 97.457031 300.320312 " fill-opacity="1" fill-rule="nonzero"/></g><path fill="#000000" d="M 53.488281 180.773438 C 53.75 181.417969 54.09375 181.976562 54.570312 182.375 C 56.730469 184.195312 57.65625 180.582031 58.503906 179.375 C 58.8125 178.933594 59.464844 178.761719 59.871094 179.199219 C 62.96875 182.527344 61.140625 189.445312 66.472656 190.839844 C 73.949219 192.792969 78.859375 186.949219 81.101562 180.558594 C 84.589844 170.628906 86.324219 160.253906 91.140625 150.777344 C 95.445312 142.308594 101.320312 135.136719 107.960938 128.65625 C 105.957031 125.503906 104.136719 122.769531 103.296875 121.867188 C 102.054688 120.523438 98.816406 119.578125 94.71875 119.277344 C 94.445312 118.902344 94.207031 118.585938 94.039062 118.40625 C 92.402344 116.640625 84.003906 115.578125 75.984375 118.40625 C 67.964844 121.238281 65.605469 124.183594 64.894531 126.773438 C 64.792969 127.15625 64.71875 127.75 64.671875 128.460938 C 62.933594 130.117188 61.8125 131.902344 61.277344 133.863281 C 60.558594 136.496094 60.828125 145.09375 61.058594 150.0625 C 56.394531 156.214844 53.464844 163.574219 52.917969 171.542969 C 52.921875 171.542969 53.132812 175.054688 53.488281 180.773438 Z M 53.488281 180.773438 " fill-opacity="1" fill-rule="nonzero"/><path fill="#000000" d="M 215.757812 100.800781 C 215.757812 100.800781 214.472656 89.226562 215.0625 86.570312 C 215.65625 83.914062 217.898438 80.804688 225.890625 77.539062 C 233.878906 74.273438 242.449219 74.933594 244.199219 76.644531 C 245.949219 78.355469 253.96875 90.425781 253.96875 90.425781 Z M 215.757812 100.800781 " fill-opacity="1" fill-rule="nonzero"/><path fill="#ffd33b" d="M 213.566406 113.941406 C 213.566406 113.941406 211.773438 97.828125 212.59375 94.128906 C 213.414062 90.429688 216.542969 86.105469 227.667969 81.558594 C 238.792969 77.011719 250.71875 77.929688 253.152344 80.3125 C 255.589844 82.695312 266.753906 99.496094 266.753906 99.496094 Z M 213.566406 113.941406 " fill-opacity="1" fill-rule="nonzero"/><path fill="#000000" d="M 212.8125 115.046875 L 212.699219 114.039062 C 212.625 113.375 210.902344 97.738281 211.746094 93.941406 C 212.878906 88.828125 217.832031 84.640625 227.335938 80.753906 C 234.335938 77.894531 240.78125 77.46875 244.003906 77.46875 C 248.6875 77.46875 252.339844 78.300781 253.757812 79.695312 C 256.234375 82.109375 267.023438 98.328125 267.476562 99.015625 L 268.144531 100.019531 Z M 244.003906 79.203125 C 240.910156 79.203125 234.71875 79.617188 227.996094 82.363281 C 216.265625 87.160156 214.074219 91.484375 213.441406 94.316406 C 212.839844 97.039062 213.789062 107.789062 214.320312 112.835938 L 265.363281 98.976562 C 261.351562 92.964844 254.316406 82.667969 252.542969 80.933594 C 251.664062 80.074219 248.683594 79.203125 244.003906 79.203125 Z M 244.003906 79.203125 " fill-opacity="1" fill-rule="nonzero"/><path fill="#000000" d="M 75.507812 138.378906 C 75.507812 138.378906 74.789062 126.753906 75.507812 124.128906 C 76.226562 121.503906 78.621094 118.511719 86.765625 115.636719 C 94.902344 112.765625 103.429688 113.84375 105.09375 115.636719 C 106.757812 117.433594 114.179688 129.882812 114.179688 129.882812 Z M 75.507812 138.378906 " fill-opacity="1" fill-rule="nonzero"/><path fill="#ffd33b" d="M 72.671875 151.394531 C 72.671875 151.394531 71.671875 135.214844 72.671875 131.558594 C 73.671875 127.90625 77.007812 123.738281 88.339844 119.742188 C 99.671875 115.742188 111.542969 117.242188 113.851562 119.742188 C 116.171875 122.242188 126.503906 139.566406 126.503906 139.566406 Z M 72.671875 151.394531 " fill-opacity="1" fill-rule="nonzero"/><path fill="#000000" d="M 71.867188 152.460938 L 71.804688 151.449219 C 71.765625 150.78125 70.808594 135.082031 71.832031 131.328125 C 73.214844 126.28125 78.367188 122.335938 88.050781 118.921875 C 93.949219 116.839844 99.375 116.402344 102.882812 116.402344 C 108.390625 116.402344 112.949219 117.484375 114.492188 119.152344 C 116.847656 121.6875 126.828125 138.414062 127.253906 139.121094 L 127.871094 140.15625 Z M 102.882812 118.140625 C 99.507812 118.140625 94.296875 118.5625 88.628906 120.5625 C 76.675781 124.777344 74.277344 128.988281 73.511719 131.789062 C 72.777344 134.476562 73.195312 145.261719 73.480469 150.328125 L 125.140625 138.976562 C 121.425781 132.78125 114.902344 122.148438 113.21875 120.332031 C 112.210938 119.242188 108.339844 118.140625 102.882812 118.140625 Z M 102.882812 118.140625 " fill-opacity="1" fill-rule="nonzero"/><path fill="#ffd33b" d="M 63.246094 170.59375 C 63.246094 170.59375 69.640625 258.933594 71.4375 272.53125 C 73.234375 286.125 81.703125 297.414062 99.410156 298.4375 C 117.117188 299.464844 128.664062 289.460938 132.511719 271.761719 C 136.363281 254.0625 147.140625 208.402344 150.730469 205.066406 C 154.324219 201.730469 178.449219 194.292969 192.816406 189.675781 C 207.191406 185.058594 221.558594 179.925781 225.410156 179.15625 C 229.261719 178.386719 235.484375 177.191406 240.96875 185.355469 C 246.453125 193.523438 274.9375 235.566406 291.617188 234.554688 C 308.296875 233.539062 322.15625 226.355469 322.15625 207.628906 C 322.15625 188.90625 294.871094 124.917969 294.871094 124.917969 L 214.050781 110.535156 L 132.085938 135.355469 Z M 63.246094 170.59375 " fill-opacity="1" fill-rule="nonzero"/><g clip-path="url(#88ebf3de7b)"><path fill="#000000" d="M 101.859375 298.988281 C 101.859375 298.988281 101.859375 298.988281 101.855469 298.988281 C 101.039062 298.988281 100.203125 299.160156 99.359375 299.109375 C 83.179688 298.171875 72.691406 288.550781 70.578125 272.546875 C 68.796875 259.082031 62.445312 171.492188 62.378906 170.609375 L 131.691406 134.546875 L 214 109.628906 L 295.488281 124.136719 L 295.675781 124.570312 C 296.792969 127.191406 323.027344 188.941406 323.027344 207.628906 C 323.027344 224.320312 311.890625 234.1875 291.671875 235.417969 C 291.457031 235.433594 291.238281 235.441406 291.019531 235.441406 C 275.253906 235.441406 250.261719 200.753906 240.25 185.839844 C 237.371094 181.558594 233.96875 179.476562 229.847656 179.476562 C 228.246094 179.476562 226.765625 179.773438 225.582031 180.007812 C 223.246094 180.472656 216.601562 182.699219 208.902344 185.28125 C 204.015625 186.914062 198.550781 188.746094 193.085938 190.5 L 188.203125 192.066406 C 174.738281 196.363281 154.390625 202.855469 151.324219 205.703125 C 148.171875 208.628906 138.070312 250.097656 133.363281 271.75 C 129.515625 289.441406 118.328125 298.988281 101.859375 298.988281 Z M 64.152344 171.105469 C 64.710938 178.753906 70.601562 259.574219 72.300781 272.417969 C 74.296875 287.519531 84.195312 296.6875 99.460938 297.574219 C 116.375 298.558594 127.828125 289.234375 131.664062 271.578125 C 131.800781 270.953125 145.492188 208.75 150.140625 204.433594 C 153.242188 201.554688 168.972656 196.378906 187.671875 190.410156 L 192.554688 188.847656 C 198.011719 187.09375 203.472656 185.269531 208.351562 183.632812 C 216.421875 180.929688 222.800781 178.792969 225.238281 178.308594 C 226.433594 178.066406 228.074219 177.738281 229.84375 177.738281 C 234.589844 177.738281 238.464844 180.070312 241.691406 184.875 C 251.550781 199.554688 276.089844 233.707031 291.019531 233.707031 C 291.203125 233.707031 291.386719 233.699219 291.566406 233.6875 C 305.125 232.863281 321.289062 227.671875 321.289062 207.632812 C 321.289062 190.097656 296.644531 131.339844 294.257812 125.691406 L 214.105469 111.429688 L 132.339844 136.183594 Z M 64.152344 171.105469 " fill-opacity="1" fill-rule="nonzero"/></g><path fill="#ffd33b" d="M 295.488281 131.722656 C 295.488281 154.261719 275.832031 172.53125 251.578125 172.53125 C 227.332031 172.53125 207.675781 154.261719 207.675781 131.722656 C 207.675781 109.1875 227.332031 90.917969 251.578125 90.917969 C 275.832031 90.917969 295.488281 109.1875 295.488281 131.722656 Z M 295.488281 131.722656 " fill-opacity="1" fill-rule="nonzero"/><path fill="#000000" d="M 251.582031 173.398438 C 226.894531 173.398438 206.808594 154.703125 206.808594 131.722656 C 206.808594 108.746094 226.894531 90.050781 251.582031 90.050781 C 276.273438 90.050781 296.359375 108.746094 296.359375 131.722656 C 296.359375 154.703125 276.269531 173.398438 251.582031 173.398438 Z M 251.582031 91.785156 C 227.851562 91.785156 208.546875 109.703125 208.546875 131.722656 C 208.546875 153.746094 227.851562 171.660156 251.582031 171.660156 C 275.3125 171.660156 294.621094 153.746094 294.621094 131.722656 C 294.621094 109.703125 275.3125 91.785156 251.582031 91.785156 Z M 251.582031 91.785156 " fill-opacity="1" fill-rule="nonzero"/><path fill="#ffd33b" d="M 155.070312 172.320312 C 155.070312 195.886719 134.515625 214.992188 109.15625 214.992188 C 83.800781 214.992188 63.246094 195.886719 63.246094 172.320312 C 63.246094 148.753906 83.800781 129.648438 109.15625 129.648438 C 134.519531 129.648438 155.070312 148.753906 155.070312 172.320312 Z M 155.070312 172.320312 " fill-opacity="1" fill-rule="nonzero"/><path fill="#000000" d="M 109.15625 215.863281 C 83.363281 215.863281 62.378906 196.328125 62.378906 172.320312 C 62.378906 148.3125 83.363281 128.78125 109.15625 128.78125 C 134.957031 128.78125 155.941406 148.3125 155.941406 172.320312 C 155.941406 196.328125 134.953125 215.863281 109.15625 215.863281 Z M 109.15625 130.515625 C 84.320312 130.515625 64.117188 149.269531 64.117188 172.320312 C 64.117188 195.371094 84.320312 214.125 109.15625 214.125 C 133.996094 214.125 154.203125 195.371094 154.203125 172.320312 C 154.203125 149.269531 133.996094 130.515625 109.15625 130.515625 Z M 109.15625 130.515625 " fill-opacity="1" fill-rule="nonzero"/><path fill="#ffffff" d="M 111.195312 204.183594 C 109.292969 204.183594 107.613281 203.023438 107.011719 201.21875 L 101.683594 186.261719 L 83.332031 191.550781 C 81.042969 192.203125 78.53125 190.816406 77.875 188.539062 L 73.3125 172.671875 C 72.984375 171.539062 73.121094 170.351562 73.691406 169.320312 C 74.261719 168.289062 75.199219 167.542969 76.332031 167.21875 L 93.183594 162.375 L 88.050781 147.9375 C 87.277344 145.617188 88.53125 143.117188 90.835938 142.347656 L 106.511719 137.128906 C 108.78125 136.375 111.335938 137.667969 112.085938 139.917969 L 117.578125 155.367188 L 137.5625 149.621094 C 139.84375 148.960938 142.363281 150.363281 143.015625 152.636719 L 147.578125 168.507812 C 147.90625 169.640625 147.769531 170.832031 147.199219 171.859375 C 146.628906 172.890625 145.691406 173.636719 144.5625 173.960938 L 126.078125 179.273438 L 131.046875 193.25 C 131.425781 194.386719 131.339844 195.578125 130.8125 196.628906 C 130.285156 197.683594 129.378906 198.46875 128.257812 198.839844 L 112.585938 204.007812 C 112.136719 204.160156 111.667969 204.183594 111.195312 204.183594 Z M 102.777344 184.167969 L 108.65625 200.710938 C 109.023438 201.820312 110.042969 202.558594 111.195312 202.558594 C 111.480469 202.558594 111.761719 202.507812 112.039062 202.414062 L 127.710938 197.191406 C 128.390625 196.96875 128.9375 196.492188 129.257812 195.855469 C 129.578125 195.214844 129.628906 194.492188 129.40625 193.816406 L 123.824219 178.117188 L 144.082031 172.292969 C 144.765625 172.09375 145.335938 171.640625 145.679688 171.019531 C 146.027344 170.394531 146.105469 169.671875 145.910156 168.988281 L 141.347656 153.117188 C 140.949219 151.742188 139.441406 150.894531 138.042969 151.289062 L 116.488281 157.484375 L 110.445312 140.484375 C 109.980469 139.097656 108.4375 138.316406 107.0625 138.777344 L 91.386719 143.996094 C 89.992188 144.460938 89.234375 145.976562 89.695312 147.371094 L 95.445312 163.535156 L 76.8125 168.890625 C 76.125 169.085938 75.558594 169.539062 75.214844 170.164062 C 74.867188 170.785156 74.789062 171.507812 74.984375 172.191406 L 79.546875 188.066406 C 79.941406 189.441406 81.460938 190.289062 82.851562 189.890625 Z M 102.777344 184.167969 " fill-opacity="1" fill-rule="nonzero"/><path fill="#ffffff" d="M 252.789062 161.824219 C 250.886719 161.824219 249.207031 160.609375 248.609375 158.808594 L 243.28125 143.828125 L 224.925781 149.101562 C 222.632812 149.761719 220.125 148.359375 219.46875 146.085938 L 214.90625 130.214844 C 214.238281 127.878906 215.59375 125.429688 217.925781 124.761719 L 234.78125 119.917969 L 229.648438 105.480469 C 228.878906 103.15625 230.128906 100.652344 232.433594 99.886719 L 248.105469 94.667969 C 250.386719 93.914062 252.9375 95.210938 253.683594 97.460938 L 259.171875 112.90625 L 279.160156 107.160156 C 281.445312 106.503906 283.957031 107.90625 284.613281 110.179688 L 289.175781 126.046875 C 289.847656 128.382812 288.496094 130.832031 286.160156 131.503906 L 267.675781 136.816406 L 272.644531 150.789062 C 273.417969 153.113281 272.167969 155.613281 269.863281 156.378906 L 254.1875 161.597656 C 253.734375 161.746094 253.265625 161.824219 252.789062 161.824219 Z M 244.371094 141.707031 L 250.25 158.242188 C 250.714844 159.628906 252.253906 160.40625 253.636719 159.949219 L 269.308594 154.730469 C 270.707031 154.265625 271.464844 152.75 271 151.355469 L 265.414062 135.65625 L 285.675781 129.832031 C 287.089844 129.425781 287.910156 127.941406 287.503906 126.527344 L 282.941406 110.660156 C 282.542969 109.28125 281.03125 108.429688 279.636719 108.832031 L 258.082031 115.027344 L 252.039062 98.027344 C 251.578125 96.640625 250.039062 95.855469 248.65625 96.320312 L 232.984375 101.535156 C 231.589844 102 230.828125 103.515625 231.292969 104.914062 L 237.039062 121.074219 L 218.40625 126.429688 C 216.992188 126.835938 216.171875 128.320312 216.578125 129.734375 L 221.140625 145.605469 C 221.539062 146.984375 223.054688 147.832031 224.449219 147.433594 Z M 244.371094 141.707031 " fill-opacity="1" fill-rule="nonzero"/><path fill="#000000" d="M 239.851562 133.703125 C 239.851562 134.28125 239.796875 134.851562 239.683594 135.417969 C 239.570312 135.984375 239.40625 136.53125 239.183594 137.066406 C 238.964844 137.597656 238.691406 138.105469 238.371094 138.585938 C 238.050781 139.0625 237.6875 139.507812 237.277344 139.917969 C 236.871094 140.324219 236.425781 140.6875 235.949219 141.007812 C 235.46875 141.328125 234.960938 141.601562 234.429688 141.820312 C 233.894531 142.042969 233.34375 142.207031 232.777344 142.320312 C 232.214844 142.433594 231.640625 142.488281 231.066406 142.488281 C 230.488281 142.488281 229.914062 142.433594 229.351562 142.320312 C 228.785156 142.207031 228.234375 142.042969 227.703125 141.820312 C 227.167969 141.601562 226.660156 141.328125 226.183594 141.007812 C 225.703125 140.6875 225.257812 140.324219 224.851562 139.917969 C 224.441406 139.507812 224.078125 139.0625 223.757812 138.585938 C 223.4375 138.105469 223.164062 137.597656 222.945312 137.066406 C 222.722656 136.53125 222.558594 135.984375 222.445312 135.417969 C 222.332031 134.851562 222.277344 134.28125 222.277344 133.703125 C 222.277344 133.128906 222.332031 132.554688 222.445312 131.988281 C 222.558594 131.425781 222.722656 130.875 222.945312 130.34375 C 223.164062 129.808594 223.4375 129.300781 223.757812 128.824219 C 224.078125 128.34375 224.441406 127.898438 224.851562 127.492188 C 225.257812 127.082031 225.703125 126.71875 226.183594 126.398438 C 226.660156 126.078125 227.167969 125.808594 227.703125 125.585938 C 228.234375 125.367188 228.785156 125.199219 229.351562 125.085938 C 229.914062 124.976562 230.488281 124.917969 231.066406 124.917969 C 231.640625 124.917969 232.214844 124.976562 232.777344 125.085938 C 233.34375 125.199219 233.894531 125.367188 234.429688 125.585938 C 234.960938 125.808594 235.46875 126.078125 235.949219 126.398438 C 236.425781 126.71875 236.871094 127.082031 237.277344 127.492188 C 237.6875 127.898438 238.050781 128.34375 238.371094 128.824219 C 238.691406 129.300781 238.964844 129.808594 239.183594 130.34375 C 239.40625 130.875 239.570312 131.425781 239.683594 131.988281 C 239.796875 132.554688 239.851562 133.128906 239.851562 133.703125 Z M 239.851562 133.703125 " fill-opacity="1" fill-rule="nonzero"/><path fill="#000000" d="M 231.0625 143.359375 C 225.738281 143.359375 221.40625 139.027344 221.40625 133.703125 C 221.40625 128.378906 225.738281 124.046875 231.0625 124.046875 C 236.386719 124.046875 240.722656 128.378906 240.722656 133.703125 C 240.722656 139.027344 236.386719 143.359375 231.0625 143.359375 Z M 231.0625 125.785156 C 226.695312 125.785156 223.144531 129.339844 223.144531 133.703125 C 223.144531 138.070312 226.699219 141.621094 231.0625 141.621094 C 235.429688 141.621094 238.984375 138.070312 238.984375 133.703125 C 238.984375 129.339844 235.429688 125.785156 231.0625 125.785156 Z M 231.0625 125.785156 " fill-opacity="1" fill-rule="nonzero"/><path fill="#000000" d="M 253.914062 109.492188 C 253.914062 110.0625 253.859375 110.628906 253.75 111.1875 C 253.636719 111.746094 253.472656 112.289062 253.253906 112.816406 C 253.035156 113.34375 252.769531 113.84375 252.449219 114.316406 C 252.132812 114.792969 251.773438 115.230469 251.371094 115.632812 C 250.964844 116.039062 250.527344 116.398438 250.054688 116.714844 C 249.578125 117.03125 249.078125 117.300781 248.550781 117.519531 C 248.023438 117.734375 247.480469 117.902344 246.921875 118.011719 C 246.359375 118.125 245.796875 118.179688 245.226562 118.179688 C 244.65625 118.179688 244.089844 118.125 243.53125 118.011719 C 242.96875 117.902344 242.425781 117.734375 241.898438 117.519531 C 241.371094 117.300781 240.871094 117.03125 240.398438 116.714844 C 239.921875 116.398438 239.484375 116.039062 239.082031 115.632812 C 238.675781 115.230469 238.316406 114.792969 238 114.316406 C 237.683594 113.84375 237.414062 113.34375 237.195312 112.816406 C 236.976562 112.289062 236.8125 111.746094 236.703125 111.1875 C 236.589844 110.628906 236.535156 110.0625 236.535156 109.492188 C 236.535156 108.921875 236.589844 108.355469 236.703125 107.796875 C 236.8125 107.238281 236.976562 106.695312 237.195312 106.167969 C 237.414062 105.640625 237.683594 105.140625 238 104.664062 C 238.316406 104.191406 238.675781 103.753906 239.082031 103.351562 C 239.484375 102.945312 239.921875 102.585938 240.398438 102.269531 C 240.871094 101.953125 241.371094 101.683594 241.898438 101.464844 C 242.425781 101.25 242.96875 101.082031 243.53125 100.972656 C 244.089844 100.859375 244.65625 100.804688 245.226562 100.804688 C 245.796875 100.804688 246.359375 100.859375 246.921875 100.972656 C 247.480469 101.082031 248.023438 101.25 248.550781 101.464844 C 249.078125 101.683594 249.578125 101.953125 250.054688 102.269531 C 250.527344 102.585938 250.964844 102.945312 251.371094 103.351562 C 251.773438 103.753906 252.132812 104.191406 252.449219 104.664062 C 252.769531 105.140625 253.035156 105.640625 253.253906 106.167969 C 253.472656 106.695312 253.636719 107.238281 253.75 107.796875 C 253.859375 108.355469 253.914062 108.921875 253.914062 109.492188 Z M 253.914062 109.492188 " fill-opacity="1" fill-rule="nonzero"/><path fill="#000000" d="M 245.222656 119.046875 C 239.953125 119.046875 235.664062 114.761719 235.664062 109.492188 C 235.664062 104.222656 239.953125 99.933594 245.222656 99.933594 C 250.496094 99.933594 254.785156 104.222656 254.785156 109.492188 C 254.785156 114.761719 250.496094 119.046875 245.222656 119.046875 Z M 245.222656 101.671875 C 240.914062 101.671875 237.402344 105.179688 237.402344 109.492188 C 237.402344 113.800781 240.914062 117.308594 245.222656 117.308594 C 249.539062 117.308594 253.046875 113.800781 253.046875 109.492188 C 253.046875 105.179688 249.539062 101.671875 245.222656 101.671875 Z M 245.222656 101.671875 " fill-opacity="1" fill-rule="nonzero"/><path fill="#000000" d="M 282.332031 121.910156 C 282.332031 126.761719 278.398438 130.695312 273.542969 130.695312 C 268.691406 130.695312 264.753906 126.761719 264.753906 121.910156 C 264.753906 117.058594 268.691406 113.121094 273.542969 113.121094 C 278.398438 113.121094 282.332031 117.054688 282.332031 121.910156 Z M 282.332031 121.910156 " fill-opacity="1" fill-rule="nonzero"/><path fill="#000000" d="M 273.542969 131.5625 C 268.21875 131.5625 263.886719 127.230469 263.886719 121.910156 C 263.886719 116.585938 268.21875 112.253906 273.542969 112.253906 C 278.867188 112.253906 283.203125 116.585938 283.203125 121.910156 C 283.203125 127.234375 278.867188 131.5625 273.542969 131.5625 Z M 273.542969 113.992188 C 269.175781 113.992188 265.625 117.542969 265.625 121.910156 C 265.625 126.273438 269.175781 129.828125 273.542969 129.828125 C 277.910156 129.828125 281.464844 126.273438 281.464844 121.910156 C 281.464844 117.542969 277.910156 113.992188 273.542969 113.992188 Z M 273.542969 113.992188 " fill-opacity="1" fill-rule="nonzero"/><path fill="#ff2273" d="M 272.007812 129.585938 C 271.917969 129.585938 271.828125 129.574219 271.742188 129.546875 C 271.488281 129.464844 271.289062 129.273438 271.195312 129.027344 L 269.804688 125.367188 L 266.730469 122.941406 C 266.523438 122.777344 266.402344 122.527344 266.402344 122.265625 C 266.398438 122 266.519531 121.75 266.726562 121.582031 L 269.78125 119.132812 L 271.136719 115.460938 C 271.226562 115.214844 271.429688 115.019531 271.679688 114.9375 C 271.929688 114.851562 272.207031 114.890625 272.429688 115.035156 L 275.699219 117.179688 L 279.613281 117.335938 C 279.878906 117.34375 280.125 117.476562 280.28125 117.6875 C 280.4375 117.902344 280.488281 118.175781 280.417969 118.429688 L 279.390625 122.207031 L 280.453125 125.972656 C 280.523438 126.230469 280.476562 126.503906 280.324219 126.71875 C 280.167969 126.933594 279.921875 127.066406 279.660156 127.078125 L 275.746094 127.265625 L 272.488281 129.441406 C 272.34375 129.535156 272.175781 129.585938 272.007812 129.585938 Z M 268.667969 122.253906 L 271.070312 124.152344 C 271.195312 124.25 271.289062 124.378906 271.347656 124.523438 L 272.433594 127.390625 L 274.980469 125.6875 C 275.113281 125.601562 275.265625 125.550781 275.421875 125.542969 L 278.484375 125.394531 L 277.652344 122.449219 C 277.609375 122.296875 277.609375 122.136719 277.648438 121.984375 L 278.453125 119.027344 L 275.394531 118.910156 C 275.234375 118.902344 275.082031 118.851562 274.949219 118.765625 L 272.386719 117.085938 L 271.328125 119.960938 C 271.269531 120.109375 271.179688 120.238281 271.058594 120.335938 Z M 268.667969 122.253906 " fill-opacity="1" fill-rule="nonzero"/><path fill="#000000" d="M 266.894531 145.5 C 266.894531 146.070312 266.839844 146.636719 266.726562 147.195312 C 266.617188 147.753906 266.453125 148.296875 266.234375 148.824219 C 266.015625 149.351562 265.746094 149.851562 265.429688 150.324219 C 265.113281 150.800781 264.753906 151.238281 264.347656 151.640625 C 263.945312 152.046875 263.507812 152.40625 263.03125 152.722656 C 262.558594 153.039062 262.058594 153.308594 261.53125 153.527344 C 261.003906 153.742188 260.460938 153.910156 259.898438 154.019531 C 259.339844 154.132812 258.773438 154.1875 258.203125 154.1875 C 257.632812 154.1875 257.070312 154.132812 256.507812 154.019531 C 255.949219 153.910156 255.40625 153.742188 254.878906 153.527344 C 254.351562 153.308594 253.851562 153.039062 253.375 152.722656 C 252.902344 152.40625 252.460938 152.046875 252.058594 151.640625 C 251.65625 151.238281 251.296875 150.800781 250.976562 150.324219 C 250.660156 149.851562 250.394531 149.351562 250.175781 148.824219 C 249.957031 148.296875 249.792969 147.753906 249.679688 147.195312 C 249.570312 146.636719 249.511719 146.070312 249.511719 145.5 C 249.511719 144.929688 249.570312 144.363281 249.679688 143.804688 C 249.792969 143.246094 249.957031 142.703125 250.175781 142.175781 C 250.394531 141.648438 250.660156 141.148438 250.976562 140.671875 C 251.296875 140.199219 251.65625 139.761719 252.058594 139.355469 C 252.460938 138.953125 252.902344 138.59375 253.375 138.277344 C 253.851562 137.960938 254.351562 137.691406 254.878906 137.472656 C 255.40625 137.253906 255.949219 137.089844 256.507812 136.980469 C 257.070312 136.867188 257.632812 136.8125 258.203125 136.8125 C 258.773438 136.8125 259.339844 136.867188 259.898438 136.980469 C 260.460938 137.089844 261.003906 137.253906 261.53125 137.472656 C 262.058594 137.691406 262.558594 137.960938 263.03125 138.277344 C 263.507812 138.59375 263.945312 138.953125 264.347656 139.355469 C 264.753906 139.761719 265.113281 140.199219 265.429688 140.671875 C 265.746094 141.148438 266.015625 141.648438 266.234375 142.175781 C 266.453125 142.703125 266.617188 143.246094 266.726562 143.804688 C 266.839844 144.363281 266.894531 144.929688 266.894531 145.5 Z M 266.894531 145.5 " fill-opacity="1" fill-rule="nonzero"/><path fill="#000000" d="M 258.203125 155.054688 C 252.929688 155.054688 248.644531 150.769531 248.644531 145.5 C 248.644531 140.230469 252.929688 135.941406 258.203125 135.941406 C 263.472656 135.941406 267.761719 140.230469 267.761719 145.5 C 267.761719 150.769531 263.472656 155.054688 258.203125 155.054688 Z M 258.203125 137.679688 C 253.890625 137.679688 250.382812 141.1875 250.382812 145.5 C 250.382812 149.8125 253.890625 153.316406 258.203125 153.316406 C 262.515625 153.316406 266.023438 149.8125 266.023438 145.5 C 266.023438 141.1875 262.515625 137.679688 258.203125 137.679688 Z M 258.203125 137.679688 " fill-opacity="1" fill-rule="nonzero"/><path fill="#ff2273" d="M 233.722656 141.011719 C 233.546875 141.011719 233.367188 140.957031 233.214844 140.84375 L 226.269531 135.804688 C 225.96875 135.585938 225.839844 135.199219 225.953125 134.839844 L 228.355469 127.199219 C 228.496094 126.742188 228.984375 126.488281 229.441406 126.632812 C 229.902344 126.777344 230.15625 127.265625 230.011719 127.722656 L 227.800781 134.765625 L 234.238281 139.4375 C 234.625 139.722656 234.710938 140.265625 234.429688 140.652344 C 234.257812 140.886719 233.992188 141.011719 233.722656 141.011719 Z M 233.722656 141.011719 " fill-opacity="1" fill-rule="nonzero"/><path fill="#ff2273" d="M 233.722656 141.011719 C 233.652344 141.011719 233.578125 141 233.507812 140.984375 C 233.042969 140.863281 232.761719 140.386719 232.886719 139.921875 L 234.890625 132.226562 L 228.707031 128.1875 C 228.304688 127.925781 228.195312 127.386719 228.457031 126.984375 C 228.71875 126.582031 229.261719 126.472656 229.660156 126.734375 L 236.367188 131.113281 C 236.675781 131.316406 236.828125 131.699219 236.730469 132.058594 L 234.566406 140.359375 C 234.464844 140.75 234.113281 141.011719 233.722656 141.011719 Z M 233.722656 141.011719 " fill-opacity="1" fill-rule="nonzero"/><path fill="#000000" d="M 102.519531 177.945312 C 101.777344 179.707031 99.6875 181.648438 97.878906 182.261719 L 92.019531 184.242188 C 90.210938 184.855469 88.222656 183.875 87.605469 182.066406 L 84.628906 173.371094 C 84.007812 171.5625 84.984375 169.582031 86.796875 168.96875 L 92.652344 166.992188 C 94.464844 166.378906 97.304688 166.648438 98.964844 167.59375 L 102.324219 169.5 C 103.984375 170.445312 104.738281 172.660156 104 174.421875 Z M 102.519531 177.945312 " fill-opacity="1" fill-rule="nonzero"/><path fill="#000000" d="M 117.339844 177.109375 C 119.105469 177.847656 121.046875 179.9375 121.660156 181.746094 L 123.644531 187.601562 C 124.257812 189.410156 123.277344 191.398438 121.464844 192.015625 L 112.769531 194.992188 C 110.960938 195.609375 108.976562 194.632812 108.367188 192.824219 L 106.386719 186.972656 C 105.773438 185.160156 106.042969 182.320312 106.988281 180.65625 L 108.894531 177.300781 C 109.839844 175.640625 112.054688 174.886719 113.816406 175.625 Z M 117.339844 177.109375 " fill-opacity="1" fill-rule="nonzero"/><path fill="#000000" d="M 183.71875 173.121094 C 184.007812 174.03125 183.503906 175.027344 182.597656 175.332031 L 172.117188 178.867188 C 171.210938 179.171875 170.234375 178.675781 169.945312 177.761719 L 168.566406 173.378906 C 168.277344 172.46875 168.78125 171.472656 169.6875 171.167969 L 180.167969 167.636719 C 181.074219 167.332031 182.050781 167.828125 182.335938 168.738281 Z M 183.71875 173.121094 " fill-opacity="1" fill-rule="nonzero"/><path fill="#000000" d="M 194.5 171.488281 C 193.710938 172.027344 192.828125 171.722656 192.542969 170.8125 L 191.160156 166.429688 C 190.875 165.515625 191.417969 164.726562 192.371094 164.671875 L 203.871094 164.011719 C 204.824219 163.957031 204.957031 164.351562 204.167969 164.890625 Z M 194.5 171.488281 " fill-opacity="1" fill-rule="nonzero"/><path fill="#000000" d="M 116.507812 162.289062 C 117.25 160.527344 119.335938 158.585938 121.148438 157.972656 L 127.003906 155.992188 C 128.816406 155.378906 130.804688 156.355469 131.421875 158.167969 L 134.398438 166.863281 C 135.015625 168.671875 134.039062 170.652344 132.230469 171.261719 L 126.375 173.242188 C 124.566406 173.855469 121.722656 173.582031 120.058594 172.640625 L 116.703125 170.734375 C 115.039062 169.789062 114.285156 167.578125 115.023438 165.8125 Z M 116.507812 162.289062 " fill-opacity="1" fill-rule="nonzero"/><path fill="#000000" d="M 101.683594 163.125 C 99.921875 162.382812 97.976562 160.296875 97.363281 158.488281 L 95.382812 152.632812 C 94.769531 150.820312 95.75 148.835938 97.558594 148.214844 L 106.257812 145.242188 C 108.066406 144.625 110.050781 145.601562 110.660156 147.410156 L 112.644531 153.261719 C 113.253906 155.070312 112.984375 157.914062 112.039062 159.574219 L 110.132812 162.929688 C 109.1875 164.59375 106.972656 165.347656 105.210938 164.605469 Z M 101.683594 163.125 " fill-opacity="1" fill-rule="nonzero"/><path fill="#00bfc3" d="M 172.679688 182.605469 C 172.3125 182.605469 171.96875 182.371094 171.851562 182.003906 C 171.707031 181.546875 171.957031 181.054688 172.414062 180.910156 L 184.292969 177.101562 C 184.753906 176.957031 185.238281 177.207031 185.386719 177.664062 C 185.53125 178.121094 185.28125 178.609375 184.824219 178.757812 L 172.945312 182.5625 C 172.855469 182.59375 172.765625 182.605469 172.679688 182.605469 Z M 172.679688 182.605469 " fill-opacity="1" fill-rule="nonzero"/><path fill="#00bfc3" d="M 195.277344 175.65625 C 194.902344 175.65625 194.558594 175.417969 194.445312 175.042969 C 194.304688 174.582031 194.5625 174.097656 195.019531 173.957031 L 206.609375 170.414062 C 207.074219 170.269531 207.554688 170.53125 207.695312 170.988281 C 207.835938 171.445312 207.578125 171.933594 207.121094 172.074219 L 195.53125 175.617188 C 195.445312 175.644531 195.359375 175.65625 195.277344 175.65625 Z M 195.277344 175.65625 " fill-opacity="1" fill-rule="nonzero"/><path fill="#00bfc3" d="M 247.257812 115.601562 C 247.152344 115.601562 247.039062 115.582031 246.933594 115.539062 C 243.316406 114.066406 239.699219 112.417969 238.6875 109.886719 C 238.296875 108.914062 238.335938 107.90625 238.792969 106.890625 C 239.285156 105.808594 240.066406 105.402344 240.644531 105.253906 C 242.5625 104.761719 244.789062 106.371094 245.035156 106.554688 C 245.421875 106.839844 245.5 107.382812 245.214844 107.769531 C 244.929688 108.152344 244.386719 108.234375 244 107.949219 C 243.539062 107.609375 242.023438 106.683594 241.074219 106.9375 C 240.882812 106.988281 240.597656 107.113281 240.375 107.609375 C 240.109375 108.191406 240.085938 108.710938 240.300781 109.242188 C 241.121094 111.296875 245.167969 112.945312 247.585938 113.929688 C 248.027344 114.109375 248.242188 114.617188 248.0625 115.058594 C 247.925781 115.398438 247.601562 115.601562 247.257812 115.601562 Z M 247.257812 115.601562 " fill-opacity="1" fill-rule="nonzero"/><path fill="#00bfc3" d="M 247.257812 115.601562 C 247.125 115.601562 246.984375 115.570312 246.859375 115.503906 C 246.429688 115.28125 246.265625 114.753906 246.488281 114.328125 C 247.699219 112.015625 249.726562 108.144531 249.027344 106.046875 C 248.84375 105.503906 248.492188 105.121094 247.914062 104.847656 C 247.417969 104.613281 247.125 104.703125 246.941406 104.789062 C 246.125 105.183594 245.527344 106.75 245.367188 107.445312 C 245.257812 107.914062 244.792969 108.210938 244.320312 108.09375 C 243.855469 107.988281 243.5625 107.519531 243.671875 107.054688 C 243.742188 106.753906 244.40625 104.082031 246.1875 103.222656 C 246.722656 102.96875 247.582031 102.765625 248.660156 103.28125 C 249.667969 103.757812 250.34375 104.503906 250.675781 105.496094 C 251.539062 108.082031 249.84375 111.675781 248.03125 115.136719 C 247.875 115.433594 247.570312 115.601562 247.257812 115.601562 Z M 247.257812 115.601562 " fill-opacity="1" fill-rule="nonzero"/><path fill="#00bfc3" d="M 257.214844 150.925781 C 257.035156 150.925781 256.855469 150.871094 256.707031 150.761719 L 252.492188 147.714844 C 252.210938 147.511719 252.078125 147.160156 252.152344 146.820312 L 253.289062 141.746094 C 253.355469 141.460938 253.558594 141.226562 253.832031 141.125 L 259.183594 139.101562 C 259.460938 138.996094 259.761719 139.035156 260 139.207031 L 264.21875 142.257812 C 264.5 142.460938 264.632812 142.8125 264.558594 143.152344 L 263.417969 148.222656 C 263.351562 148.507812 263.148438 148.742188 262.875 148.847656 L 257.523438 150.871094 C 257.421875 150.910156 257.316406 150.925781 257.214844 150.925781 Z M 253.972656 146.640625 L 257.347656 149.078125 L 261.824219 147.386719 L 262.734375 143.328125 L 259.359375 140.890625 L 254.882812 142.582031 Z M 253.972656 146.640625 " fill-opacity="1" fill-rule="nonzero"/><path fill="#ff2273" d="M 158.878906 145.835938 C 157.761719 145.835938 156.726562 145.109375 156.382812 143.980469 C 155.96875 142.605469 156.746094 141.148438 158.125 140.734375 L 196.171875 129.238281 C 197.539062 128.824219 199.007812 129.601562 199.421875 130.980469 C 199.839844 132.359375 199.058594 133.8125 197.679688 134.230469 L 159.636719 145.722656 C 159.382812 145.796875 159.128906 145.835938 158.878906 145.835938 Z M 158.878906 145.835938 " fill-opacity="1" fill-rule="nonzero"/><path fill="#00bfc3" d="M 166.523438 152.738281 C 165.40625 152.738281 164.371094 152.015625 164.03125 150.890625 C 163.613281 149.511719 164.390625 148.054688 165.765625 147.636719 L 191.941406 139.695312 C 193.308594 139.273438 194.777344 140.050781 195.195312 141.429688 C 195.613281 142.808594 194.835938 144.261719 193.457031 144.679688 L 167.28125 152.625 C 167.03125 152.703125 166.777344 152.738281 166.523438 152.738281 Z M 166.523438 152.738281 " fill-opacity="1" fill-rule="nonzero"/><path fill="#ffffff" d="M 94.714844 290.078125 C 91.292969 290.035156 87.117188 287.386719 85.140625 285.847656 C 81.886719 283.320312 79.492188 279.191406 78.371094 275.273438 C 77.480469 272.160156 77.757812 262.972656 83.617188 264.953125 C 86.777344 266.023438 87.378906 271.683594 88.949219 274.207031 C 91.125 277.703125 94.394531 280.414062 97.640625 282.863281 C 99.417969 284.199219 99.738281 287.042969 98.234375 288.683594 C 97.300781 289.707031 96.066406 290.09375 94.714844 290.078125 Z M 94.714844 290.078125 " fill-opacity="1" fill-rule="nonzero"/><path fill="#000000" d="M 94.78125 290.320312 L 94.703125 290.320312 C 90.410156 290.320312 85.539062 286.945312 84.605469 286.21875 C 81.453125 283.769531 78.808594 279.804688 77.535156 275.355469 C 76.949219 273.3125 76.699219 268.1875 78.78125 265.425781 C 79.976562 263.839844 81.78125 263.382812 83.898438 264.09375 C 86.410156 264.941406 87.464844 267.980469 88.398438 270.640625 C 88.820312 271.839844 89.214844 272.984375 89.6875 273.738281 C 91.78125 277.101562 95 279.777344 98.164062 282.164062 C 99.226562 282.964844 99.910156 284.230469 100.039062 285.636719 C 100.164062 287 99.742188 288.011719 98.875 288.957031 C 97.855469 290.070312 96.480469 290.320312 94.78125 290.320312 Z M 82.082031 265.546875 C 81.308594 265.546875 80.679688 265.875 80.175781 266.550781 C 78.695312 268.511719 78.613281 272.957031 79.207031 275.035156 C 80.382812 279.144531 82.800781 282.941406 85.675781 285.175781 C 88.042969 287.019531 92.148438 289.238281 95.042969 289.238281 L 95.417969 289.238281 C 95.417969 289.238281 97.226562 288.863281 97.914062 288.109375 C 98.449219 287.527344 98.550781 286.679688 98.46875 285.800781 C 98.382812 284.886719 97.871094 284.066406 97.199219 283.5625 C 93.902344 281.074219 90.496094 278.273438 88.25 274.667969 C 87.679688 273.75 87.230469 272.527344 86.777344 271.230469 C 85.976562 268.949219 85.0625 266.355469 83.351562 265.777344 C 82.894531 265.625 82.460938 265.546875 82.082031 265.546875 Z M 82.082031 265.546875 " fill-opacity="1" fill-rule="nonzero"/><path fill="#ffffff" d="M 311.996094 195.21875 C 314.121094 197.914062 314.691406 202.832031 314.738281 205.335938 C 314.820312 209.460938 313.117188 213.917969 310.769531 217.246094 C 308.90625 219.894531 301.566406 225.441406 299.417969 219.628906 C 298.253906 216.496094 302.289062 212.476562 303.265625 209.671875 C 304.613281 205.777344 304.667969 201.53125 304.523438 197.464844 C 304.445312 195.238281 306.457031 193.203125 308.6875 193.347656 C 310.070312 193.433594 311.152344 194.152344 311.996094 195.21875 Z M 311.996094 195.21875 " fill-opacity="1" fill-rule="nonzero"/><path fill="#000000" d="M 302.726562 223.054688 C 301.371094 223.054688 299.558594 222.511719 298.601562 219.929688 C 297.679688 217.4375 299.363281 214.722656 300.847656 212.324219 C 301.519531 211.246094 302.148438 210.222656 302.441406 209.386719 C 303.742188 205.632812 303.792969 201.449219 303.652344 197.492188 C 303.609375 196.222656 304.117188 194.941406 305.050781 193.972656 C 306.042969 192.945312 307.40625 192.386719 308.742188 192.480469 C 310.269531 192.574219 311.597656 193.3125 312.675781 194.675781 C 315.347656 198.0625 315.585938 204.136719 315.605469 205.320312 C 315.6875 209.316406 314.148438 213.960938 311.480469 217.746094 C 310.21875 219.539062 306.230469 223.054688 302.726562 223.054688 Z M 308.609375 194.976562 C 307.671875 194.976562 306.894531 194.949219 306.304688 195.5625 C 305.695312 196.191406 305.363281 196.820312 305.390625 197.621094 C 305.535156 201.75 305.476562 206.03125 304.082031 210.050781 C 303.726562 211.074219 303.046875 212.125 302.324219 213.289062 C 301.046875 215.347656 299.601562 217.65625 300.230469 219.351562 C 300.734375 220.707031 301.527344 221.328125 302.726562 221.328125 C 305.199219 221.328125 308.777344 218.570312 310.054688 216.753906 C 312.515625 213.257812 313.941406 208.996094 313.863281 205.355469 C 313.8125 202.355469 313.109375 198.421875 311.308594 196.136719 C 310.539062 195.164062 309.660156 194.972656 308.628906 194.972656 C 308.621094 194.976562 308.617188 194.976562 308.609375 194.976562 Z M 308.609375 194.976562 " fill-opacity="1" fill-rule="nonzero"/></svg>