<svg xmlns="http://www.w3.org/2000/svg" xmlns:xlink="http://www.w3.org/1999/xlink" width="500" zoomAndPan="magnify" viewBox="0 0 375 374.999991" height="500" preserveAspectRatio="xMidYMid meet" version="1.0"><defs><clipPath id="cf96fd415c"><path d="M 43 114 L 349 114 L 349 312.34375 L 43 312.34375 Z M 43 114 " clip-rule="nonzero"/></clipPath><clipPath id="b7362be3ab"><path d="M 35 62.59375 L 338 62.59375 L 338 259 L 35 259 Z M 35 62.59375 " clip-rule="nonzero"/></clipPath></defs><g clip-path="url(#cf96fd415c)"><path fill="#ea9052" d="M 348.839844 173.601562 C 348.839844 140.859375 318.917969 114.308594 282.03125 114.308594 C 264.589844 114.308594 248.714844 120.246094 236.816406 129.960938 L 77.738281 216.550781 C 76.457031 217.203125 75.199219 217.882812 73.96875 218.605469 L 73.886719 218.652344 C 55.488281 229.476562 43.347656 248.027344 43.347656 269.09375 C 43.347656 279.351562 43.996094 282.648438 50.792969 290.089844 C 61.894531 302.234375 86.546875 312.355469 111.121094 312.355469 C 133.46875 312.355469 156.816406 305.757812 169.457031 295.464844 L 328.039062 206.242188 C 330.726562 204.949219 333.226562 203.554688 335.480469 202.054688 L 335.5 202.042969 C 338.464844 200.070312 341.011719 197.929688 343.035156 195.644531 C 349.441406 188.417969 348.839844 183.425781 348.839844 173.601562 Z M 348.839844 173.601562 " fill-opacity="1" fill-rule="nonzero"/></g><path fill="#f9b360" d="M 347.226562 164.203125 C 347.226562 131.859375 317.621094 105.621094 281.125 105.621094 C 263.867188 105.621094 248.160156 111.492188 236.386719 121.085938 L 78.992188 206.632812 C 77.722656 207.277344 76.476562 207.953125 75.261719 208.664062 L 75.179688 208.707031 C 56.976562 219.40625 44.960938 237.726562 44.960938 258.546875 C 44.960938 268.675781 45.605469 271.933594 52.332031 279.285156 C 63.3125 291.28125 87.707031 301.28125 112.019531 301.28125 C 134.128906 301.28125 157.234375 294.765625 169.742188 284.597656 L 326.648438 196.449219 C 329.304688 195.171875 331.78125 193.792969 334.011719 192.3125 L 334.03125 192.300781 L 334.027344 192.300781 C 336.960938 190.351562 339.480469 188.234375 341.484375 185.976562 C 347.820312 178.839844 347.226562 173.90625 347.226562 164.203125 Z M 347.226562 164.203125 " fill-opacity="1" fill-rule="nonzero"/><path fill="#e25973" d="M 345.234375 162.117188 C 345.234375 129.773438 315.628906 103.539062 279.136719 103.539062 C 261.878906 103.539062 246.171875 109.40625 234.398438 119.003906 L 77 204.550781 C 75.730469 205.195312 74.488281 205.867188 73.269531 206.578125 L 73.1875 206.621094 L 73.1875 206.625 C 54.984375 217.320312 42.96875 235.644531 42.96875 256.460938 C 42.96875 266.59375 43.613281 269.851562 50.339844 277.199219 C 61.324219 289.199219 85.714844 299.195312 110.027344 299.195312 C 132.140625 299.195312 155.242188 292.679688 167.75 282.515625 L 324.65625 194.363281 C 327.316406 193.085938 329.789062 191.707031 332.019531 190.226562 L 332.039062 190.21875 L 332.035156 190.214844 C 334.96875 188.269531 337.488281 186.148438 339.492188 183.894531 C 345.828125 176.753906 345.234375 171.824219 345.234375 162.117188 Z M 345.234375 162.117188 " fill-opacity="1" fill-rule="nonzero"/><path fill="#d4dd6a" d="M 230.273438 225.542969 C 223.132812 212.664062 205.246094 206.59375 191.554688 201.796875 C 173.914062 195.617188 155.6875 190.226562 137.308594 186.257812 C 122.117188 182.972656 106.265625 181.148438 91.011719 185.15625 C 75.554688 189.214844 62.449219 198.367188 50.300781 207.761719 C 45.007812 211.851562 49.128906 214.945312 43.792969 218.976562 L 41.78125 220.128906 C 33.242188 220.742188 28.101562 228.25 27.054688 235.253906 C 25.519531 245.488281 29.175781 257.867188 38.113281 264.558594 C 42.6875 267.988281 48.207031 270.0625 53.863281 271.421875 C 57.621094 272.320312 61.691406 271.621094 65.300781 273.101562 C 68.78125 274.535156 71.140625 277.5 73.21875 280.328125 C 76.230469 284.429688 79.675781 287.664062 84.179688 290.378906 C 92.792969 295.570312 103.222656 298.164062 113.472656 296.878906 C 125.300781 295.398438 135.03125 288.722656 147.410156 289.429688 C 159.027344 290.097656 169.878906 291.925781 181.347656 288.851562 C 191.214844 286.207031 200.519531 281.21875 208.226562 274.972656 C 212.707031 271.34375 216.910156 267.195312 220.597656 262.859375 C 229.183594 252.765625 237.308594 238.230469 230.273438 225.542969 Z M 230.273438 225.542969 " fill-opacity="1" fill-rule="nonzero"/><path fill="#c1c65f" d="M 334.792969 154.496094 C 327.652344 141.617188 309.765625 135.546875 296.078125 130.75 C 278.4375 124.574219 260.207031 119.179688 241.832031 115.210938 C 226.636719 111.925781 210.785156 110.101562 195.53125 114.109375 C 180.078125 118.167969 166.96875 127.320312 154.820312 136.714844 C 149.53125 140.804688 153.652344 143.898438 148.316406 147.929688 L 146.304688 149.082031 C 137.761719 149.695312 132.625 157.203125 131.574219 164.210938 C 130.042969 174.441406 133.699219 186.820312 142.632812 193.511719 C 147.210938 196.941406 152.730469 199.015625 158.386719 200.375 C 162.144531 201.273438 166.210938 200.574219 169.824219 202.058594 C 173.300781 203.488281 175.664062 206.453125 177.738281 209.28125 C 180.753906 213.382812 184.195312 216.617188 188.699219 219.332031 C 197.3125 224.527344 207.742188 227.117188 217.996094 225.832031 C 229.824219 224.351562 239.554688 217.675781 251.933594 218.386719 C 263.550781 219.050781 274.402344 220.878906 285.871094 217.808594 C 295.738281 215.160156 305.039062 210.171875 312.75 203.929688 C 317.230469 200.300781 321.429688 196.148438 325.117188 191.816406 C 333.703125 181.722656 341.832031 167.183594 334.792969 154.496094 Z M 334.792969 154.496094 " fill-opacity="1" fill-rule="nonzero"/><path fill="#c0374f" d="M 186.328125 244.410156 C 186.328125 245.757812 186.226562 247.105469 186.023438 248.445312 C 185.820312 249.789062 185.519531 251.121094 185.113281 252.445312 C 184.707031 253.765625 184.207031 255.074219 183.605469 256.363281 C 183.003906 257.65625 182.304688 258.925781 181.511719 260.171875 C 180.71875 261.417969 179.832031 262.632812 178.855469 263.824219 C 177.878906 265.011719 176.8125 266.167969 175.660156 267.289062 C 174.507812 268.414062 173.277344 269.496094 171.960938 270.535156 C 170.644531 271.578125 169.253906 272.578125 167.789062 273.53125 C 166.324219 274.484375 164.789062 275.390625 163.1875 276.246094 C 161.582031 277.101562 159.921875 277.902344 158.195312 278.652344 C 156.472656 279.402344 154.695312 280.09375 152.867188 280.730469 C 151.039062 281.367188 149.167969 281.941406 147.253906 282.460938 C 145.335938 282.976562 143.386719 283.429688 141.402344 283.820312 C 139.421875 284.210938 137.410156 284.539062 135.378906 284.804688 C 133.34375 285.066406 131.296875 285.265625 129.234375 285.394531 C 127.171875 285.527344 125.101562 285.59375 123.027344 285.59375 C 120.957031 285.59375 118.886719 285.527344 116.824219 285.394531 C 114.761719 285.265625 112.710938 285.066406 110.679688 284.804688 C 108.644531 284.539062 106.636719 284.210938 104.652344 283.820312 C 102.667969 283.429688 100.71875 282.976562 98.804688 282.460938 C 96.890625 281.941406 95.015625 281.367188 93.1875 280.730469 C 91.359375 280.09375 89.585938 279.402344 87.859375 278.652344 C 86.136719 277.902344 84.472656 277.101562 82.871094 276.246094 C 81.269531 275.390625 79.734375 274.484375 78.269531 273.53125 C 76.800781 272.578125 75.410156 271.578125 74.097656 270.535156 C 72.78125 269.496094 71.546875 268.414062 70.394531 267.289062 C 69.246094 266.167969 68.179688 265.011719 67.203125 263.824219 C 66.226562 262.632812 65.339844 261.417969 64.546875 260.171875 C 63.753906 258.925781 63.054688 257.65625 62.453125 256.363281 C 61.851562 255.074219 61.347656 253.765625 60.945312 252.445312 C 60.539062 251.121094 60.234375 249.789062 60.03125 248.445312 C 59.828125 247.105469 59.726562 245.757812 59.726562 244.410156 C 59.726562 243.0625 59.828125 241.714844 60.03125 240.371094 C 60.234375 239.03125 60.539062 237.699219 60.945312 236.375 C 61.347656 235.050781 61.851562 233.746094 62.453125 232.453125 C 63.054688 231.164062 63.753906 229.894531 64.546875 228.648438 C 65.339844 227.402344 66.226562 226.183594 67.203125 224.996094 C 68.179688 223.804688 69.246094 222.648438 70.394531 221.527344 C 71.546875 220.40625 72.78125 219.324219 74.097656 218.28125 C 75.410156 217.238281 76.800781 216.242188 78.269531 215.289062 C 79.734375 214.332031 81.269531 213.429688 82.871094 212.574219 C 84.472656 211.71875 86.136719 210.914062 87.859375 210.164062 C 89.585938 209.417969 91.359375 208.722656 93.1875 208.089844 C 95.015625 207.453125 96.890625 206.875 98.804688 206.359375 C 100.71875 205.84375 102.667969 205.390625 104.652344 205 C 106.636719 204.605469 108.644531 204.28125 110.679688 204.015625 C 112.710938 203.753906 114.761719 203.554688 116.824219 203.421875 C 118.886719 203.292969 120.957031 203.226562 123.027344 203.226562 C 125.101562 203.226562 127.171875 203.292969 129.234375 203.421875 C 131.296875 203.554688 133.34375 203.753906 135.378906 204.015625 C 137.410156 204.28125 139.421875 204.605469 141.402344 205 C 143.386719 205.390625 145.335938 205.84375 147.253906 206.359375 C 149.167969 206.875 151.039062 207.453125 152.867188 208.089844 C 154.695312 208.722656 156.472656 209.417969 158.195312 210.164062 C 159.921875 210.914062 161.582031 211.71875 163.1875 212.574219 C 164.789062 213.429688 166.324219 214.332031 167.789062 215.289062 C 169.253906 216.242188 170.644531 217.238281 171.960938 218.28125 C 173.277344 219.324219 174.507812 220.40625 175.660156 221.527344 C 176.8125 222.648438 177.878906 223.804688 178.855469 224.996094 C 179.832031 226.183594 180.71875 227.402344 181.511719 228.648438 C 182.304688 229.894531 183.003906 231.164062 183.605469 232.453125 C 184.207031 233.746094 184.707031 235.050781 185.113281 236.375 C 185.519531 237.699219 185.820312 239.03125 186.023438 240.371094 C 186.226562 241.714844 186.328125 243.0625 186.328125 244.410156 Z M 186.328125 244.410156 " fill-opacity="1" fill-rule="nonzero"/><path fill="#e83f60" d="M 186.214844 235.664062 C 186.214844 237.011719 186.113281 238.359375 185.910156 239.699219 C 185.707031 241.042969 185.402344 242.375 185 243.699219 C 184.59375 245.023438 184.089844 246.328125 183.488281 247.621094 C 182.886719 248.910156 182.191406 250.179688 181.394531 251.425781 C 180.601562 252.671875 179.71875 253.890625 178.742188 255.078125 C 177.761719 256.269531 176.699219 257.425781 175.546875 258.546875 C 174.394531 259.667969 173.160156 260.75 171.847656 261.792969 C 170.53125 262.835938 169.140625 263.832031 167.675781 264.789062 C 166.207031 265.742188 164.675781 266.644531 163.070312 267.5 C 161.46875 268.355469 159.804688 269.160156 158.082031 269.910156 C 156.359375 270.660156 154.582031 271.351562 152.753906 271.988281 C 150.925781 272.625 149.054688 273.199219 147.140625 273.714844 C 145.222656 274.230469 143.273438 274.6875 141.289062 275.078125 C 139.304688 275.46875 137.296875 275.796875 135.265625 276.058594 C 133.230469 276.324219 131.183594 276.519531 129.121094 276.652344 C 127.054688 276.785156 124.988281 276.851562 122.914062 276.851562 C 120.84375 276.851562 118.773438 276.785156 116.710938 276.652344 C 114.648438 276.519531 112.597656 276.324219 110.566406 276.058594 C 108.53125 275.796875 106.523438 275.46875 104.539062 275.078125 C 102.554688 274.6875 100.605469 274.230469 98.691406 273.714844 C 96.777344 273.199219 94.90625 272.625 93.074219 271.988281 C 91.246094 271.351562 89.472656 270.660156 87.746094 269.910156 C 86.023438 269.160156 84.359375 268.355469 82.757812 267.5 C 81.15625 266.644531 79.621094 265.742188 78.15625 264.789062 C 76.691406 263.832031 75.300781 262.835938 73.984375 261.792969 C 72.667969 260.75 71.433594 259.667969 70.285156 258.546875 C 69.132812 257.425781 68.066406 256.269531 67.089844 255.078125 C 66.113281 253.890625 65.226562 252.671875 64.433594 251.425781 C 63.640625 250.179688 62.941406 248.910156 62.339844 247.621094 C 61.738281 246.328125 61.238281 245.023438 60.832031 243.699219 C 60.425781 242.375 60.125 241.042969 59.921875 239.699219 C 59.71875 238.359375 59.617188 237.011719 59.617188 235.664062 C 59.617188 234.316406 59.71875 232.96875 59.921875 231.625 C 60.125 230.285156 60.425781 228.953125 60.832031 227.628906 C 61.238281 226.304688 61.738281 225 62.339844 223.707031 C 62.941406 222.417969 63.640625 221.148438 64.433594 219.902344 C 65.226562 218.65625 66.113281 217.4375 67.089844 216.246094 C 68.066406 215.058594 69.132812 213.902344 70.285156 212.78125 C 71.433594 211.660156 72.667969 210.578125 73.984375 209.535156 C 75.300781 208.492188 76.691406 207.492188 78.15625 206.539062 C 79.621094 205.585938 81.15625 204.679688 82.757812 203.824219 C 84.359375 202.96875 86.023438 202.167969 87.746094 201.417969 C 89.472656 200.667969 91.246094 199.976562 93.074219 199.339844 C 94.90625 198.703125 96.777344 198.128906 98.691406 197.609375 C 100.605469 197.09375 102.554688 196.640625 104.539062 196.25 C 106.523438 195.859375 108.53125 195.53125 110.566406 195.265625 C 112.597656 195.003906 114.648438 194.808594 116.710938 194.675781 C 118.773438 194.542969 120.84375 194.476562 122.914062 194.476562 C 124.988281 194.476562 127.054688 194.542969 129.121094 194.675781 C 131.183594 194.808594 133.230469 195.003906 135.265625 195.265625 C 137.296875 195.53125 139.304688 195.859375 141.289062 196.25 C 143.273438 196.640625 145.222656 197.09375 147.140625 197.609375 C 149.054688 198.128906 150.925781 198.703125 152.753906 199.339844 C 154.582031 199.976562 156.359375 200.667969 158.082031 201.417969 C 159.804688 202.167969 161.46875 202.96875 163.070312 203.824219 C 164.675781 204.679688 166.207031 205.585938 167.675781 206.539062 C 169.140625 207.492188 170.53125 208.492188 171.847656 209.535156 C 173.160156 210.578125 174.394531 211.660156 175.546875 212.78125 C 176.699219 213.902344 177.761719 215.058594 178.742188 216.246094 C 179.71875 217.4375 180.601562 218.65625 181.394531 219.902344 C 182.191406 221.148438 182.886719 222.417969 183.488281 223.707031 C 184.089844 225 184.59375 226.304688 185 227.628906 C 185.402344 228.953125 185.707031 230.285156 185.910156 231.625 C 186.113281 232.96875 186.214844 234.316406 186.214844 235.664062 Z M 186.214844 235.664062 " fill-opacity="1" fill-rule="nonzero"/><path fill="#c0374f" d="M 269.21875 198.851562 C 269.21875 200.203125 269.117188 201.546875 268.914062 202.890625 C 268.710938 204.230469 268.40625 205.5625 268.003906 206.886719 C 267.597656 208.210938 267.097656 209.515625 266.496094 210.808594 C 265.890625 212.097656 265.195312 213.367188 264.402344 214.613281 C 263.609375 215.859375 262.722656 217.078125 261.746094 218.265625 C 260.769531 219.457031 259.703125 220.613281 258.550781 221.734375 C 257.398438 222.855469 256.167969 223.9375 254.851562 224.980469 C 253.535156 226.023438 252.144531 227.019531 250.679688 227.972656 C 249.214844 228.929688 247.679688 229.832031 246.078125 230.6875 C 244.472656 231.542969 242.8125 232.347656 241.085938 233.097656 C 239.363281 233.84375 237.585938 234.539062 235.757812 235.175781 C 233.929688 235.808594 232.058594 236.386719 230.144531 236.902344 C 228.226562 237.417969 226.277344 237.871094 224.292969 238.265625 C 222.3125 238.65625 220.300781 238.984375 218.269531 239.246094 C 216.234375 239.507812 214.1875 239.707031 212.125 239.839844 C 210.0625 239.972656 207.992188 240.039062 205.917969 240.039062 C 203.847656 240.039062 201.777344 239.972656 199.714844 239.839844 C 197.652344 239.707031 195.601562 239.507812 193.570312 239.246094 C 191.535156 238.984375 189.527344 238.65625 187.542969 238.265625 C 185.558594 237.871094 183.609375 237.417969 181.695312 236.902344 C 179.78125 236.386719 177.90625 235.808594 176.078125 235.175781 C 174.25 234.539062 172.476562 233.84375 170.75 233.097656 C 169.027344 232.347656 167.363281 231.542969 165.761719 230.6875 C 164.160156 229.832031 162.625 228.929688 161.160156 227.972656 C 159.691406 227.019531 158.300781 226.023438 156.988281 224.980469 C 155.671875 223.9375 154.4375 222.855469 153.285156 221.734375 C 152.136719 220.613281 151.070312 219.457031 150.09375 218.265625 C 149.117188 217.078125 148.230469 215.859375 147.4375 214.613281 C 146.644531 213.367188 145.945312 212.097656 145.34375 210.808594 C 144.742188 209.515625 144.238281 208.210938 143.835938 206.886719 C 143.429688 205.5625 143.125 204.230469 142.921875 202.890625 C 142.71875 201.546875 142.617188 200.203125 142.617188 198.851562 C 142.617188 197.503906 142.71875 196.15625 142.921875 194.816406 C 143.125 193.472656 143.429688 192.140625 143.835938 190.816406 C 144.238281 189.496094 144.742188 188.1875 145.34375 186.898438 C 145.945312 185.605469 146.644531 184.339844 147.4375 183.089844 C 148.230469 181.84375 149.117188 180.628906 150.09375 179.4375 C 151.070312 178.25 152.136719 177.09375 153.285156 175.972656 C 154.4375 174.851562 155.671875 173.769531 156.988281 172.726562 C 158.300781 171.683594 159.691406 170.683594 161.160156 169.730469 C 162.625 168.777344 164.160156 167.871094 165.761719 167.015625 C 167.363281 166.160156 169.027344 165.359375 170.75 164.609375 C 172.476562 163.859375 174.25 163.167969 176.078125 162.53125 C 177.90625 161.894531 179.78125 161.320312 181.695312 160.800781 C 183.609375 160.285156 185.558594 159.832031 187.542969 159.441406 C 189.527344 159.050781 191.535156 158.722656 193.570312 158.460938 C 195.601562 158.195312 197.652344 158 199.714844 157.867188 C 201.777344 157.734375 203.847656 157.667969 205.917969 157.667969 C 207.992188 157.667969 210.0625 157.734375 212.125 157.867188 C 214.1875 158 216.234375 158.195312 218.269531 158.460938 C 220.300781 158.722656 222.3125 159.050781 224.292969 159.441406 C 226.277344 159.832031 228.226562 160.285156 230.144531 160.800781 C 232.058594 161.320312 233.929688 161.894531 235.757812 162.53125 C 237.585938 163.167969 239.363281 163.859375 241.085938 164.609375 C 242.8125 165.359375 244.472656 166.160156 246.078125 167.015625 C 247.679688 167.871094 249.214844 168.777344 250.679688 169.730469 C 252.144531 170.683594 253.535156 171.683594 254.851562 172.726562 C 256.167969 173.769531 257.398438 174.851562 258.550781 175.972656 C 259.703125 177.09375 260.769531 178.25 261.746094 179.4375 C 262.722656 180.628906 263.609375 181.84375 264.402344 183.089844 C 265.195312 184.339844 265.890625 185.605469 266.496094 186.898438 C 267.097656 188.1875 267.597656 189.496094 268.003906 190.816406 C 268.40625 192.140625 268.710938 193.472656 268.914062 194.816406 C 269.117188 196.15625 269.21875 197.503906 269.21875 198.851562 Z M 269.21875 198.851562 " fill-opacity="1" fill-rule="nonzero"/><path fill="#e83f60" d="M 269.105469 190.105469 C 269.105469 191.453125 269.003906 192.800781 268.800781 194.140625 C 268.597656 195.484375 268.292969 196.816406 267.886719 198.140625 C 267.484375 199.460938 266.980469 200.769531 266.378906 202.058594 C 265.777344 203.351562 265.078125 204.621094 264.285156 205.867188 C 263.492188 207.113281 262.605469 208.328125 261.628906 209.519531 C 260.652344 210.707031 259.585938 211.863281 258.4375 212.984375 C 257.285156 214.105469 256.050781 215.191406 254.734375 216.230469 C 253.421875 217.273438 252.03125 218.273438 250.5625 219.226562 C 249.097656 220.179688 247.5625 221.085938 245.960938 221.941406 C 244.359375 222.796875 242.695312 223.597656 240.972656 224.347656 C 239.246094 225.097656 237.472656 225.789062 235.644531 226.425781 C 233.816406 227.0625 231.941406 227.636719 230.027344 228.15625 C 228.113281 228.671875 226.164062 229.125 224.179688 229.515625 C 222.195312 229.90625 220.1875 230.234375 218.152344 230.5 C 216.121094 230.761719 214.070312 230.960938 212.007812 231.089844 C 209.945312 231.222656 207.878906 231.289062 205.804688 231.289062 C 203.730469 231.289062 201.664062 231.222656 199.601562 231.089844 C 197.535156 230.960938 195.488281 230.761719 193.457031 230.5 C 191.421875 230.234375 189.414062 229.90625 187.429688 229.515625 C 185.445312 229.125 183.496094 228.671875 181.582031 228.15625 C 179.664062 227.636719 177.792969 227.0625 175.964844 226.425781 C 174.136719 225.789062 172.359375 225.097656 170.636719 224.347656 C 168.914062 223.597656 167.25 222.796875 165.648438 221.941406 C 164.046875 221.085938 162.511719 220.179688 161.042969 219.226562 C 159.578125 218.273438 158.1875 217.273438 156.875 216.230469 C 155.558594 215.191406 154.324219 214.105469 153.171875 212.984375 C 152.019531 211.863281 150.957031 210.707031 149.980469 209.519531 C 149 208.328125 148.117188 207.113281 147.324219 205.867188 C 146.53125 204.621094 145.832031 203.351562 145.230469 202.058594 C 144.628906 200.769531 144.125 199.460938 143.722656 198.140625 C 143.316406 196.816406 143.011719 195.484375 142.808594 194.140625 C 142.605469 192.800781 142.503906 191.453125 142.503906 190.105469 C 142.503906 188.757812 142.605469 187.410156 142.808594 186.066406 C 143.011719 184.726562 143.316406 183.394531 143.722656 182.070312 C 144.125 180.746094 144.628906 179.441406 145.230469 178.148438 C 145.832031 176.859375 146.53125 175.589844 147.324219 174.34375 C 148.117188 173.097656 149 171.878906 149.980469 170.691406 C 150.957031 169.5 152.019531 168.34375 153.171875 167.222656 C 154.324219 166.101562 155.558594 165.019531 156.875 163.976562 C 158.1875 162.933594 159.578125 161.9375 161.042969 160.984375 C 162.511719 160.027344 164.046875 159.125 165.648438 158.269531 C 167.25 157.414062 168.914062 156.609375 170.636719 155.859375 C 172.359375 155.113281 174.136719 154.417969 175.964844 153.78125 C 177.792969 153.148438 179.664062 152.570312 181.582031 152.054688 C 183.496094 151.539062 185.445312 151.085938 187.429688 150.695312 C 189.414062 150.300781 191.421875 149.976562 193.457031 149.710938 C 195.488281 149.449219 197.535156 149.25 199.601562 149.117188 C 201.664062 148.984375 203.730469 148.921875 205.804688 148.921875 C 207.878906 148.921875 209.945312 148.984375 212.007812 149.117188 C 214.070312 149.25 216.121094 149.449219 218.152344 149.710938 C 220.1875 149.976562 222.195312 150.300781 224.179688 150.695312 C 226.164062 151.085938 228.113281 151.539062 230.027344 152.054688 C 231.941406 152.570312 233.816406 153.148438 235.644531 153.78125 C 237.472656 154.417969 239.246094 155.113281 240.972656 155.859375 C 242.695312 156.609375 244.359375 157.414062 245.960938 158.269531 C 247.5625 159.125 249.097656 160.027344 250.5625 160.984375 C 252.03125 161.9375 253.421875 162.933594 254.734375 163.976562 C 256.050781 165.019531 257.285156 166.101562 258.4375 167.222656 C 259.585938 168.34375 260.652344 169.5 261.628906 170.691406 C 262.605469 171.878906 263.492188 173.097656 264.285156 174.34375 C 265.078125 175.589844 265.777344 176.859375 266.378906 178.148438 C 266.980469 179.441406 267.484375 180.746094 267.886719 182.070312 C 268.292969 183.394531 268.597656 184.726562 268.800781 186.066406 C 269.003906 187.410156 269.105469 188.757812 269.105469 190.105469 Z M 269.105469 190.105469 " fill-opacity="1" fill-rule="nonzero"/><path fill="#c0374f" d="M 340.960938 164.894531 C 340.960938 166.007812 340.875 167.121094 340.707031 168.230469 C 340.539062 169.339844 340.289062 170.441406 339.953125 171.535156 C 339.621094 172.625 339.203125 173.707031 338.707031 174.773438 C 338.210938 175.839844 337.632812 176.886719 336.976562 177.917969 C 336.324219 178.945312 335.589844 179.953125 334.785156 180.9375 C 333.976562 181.917969 333.097656 182.875 332.144531 183.800781 C 331.191406 184.726562 330.171875 185.621094 329.085938 186.484375 C 328 187.34375 326.851562 188.167969 325.640625 188.957031 C 324.429688 189.746094 323.160156 190.492188 321.835938 191.199219 C 320.511719 191.90625 319.136719 192.570312 317.714844 193.1875 C 316.289062 193.808594 314.820312 194.382812 313.3125 194.90625 C 311.800781 195.429688 310.253906 195.90625 308.671875 196.335938 C 307.089844 196.761719 305.476562 197.136719 303.839844 197.460938 C 302.199219 197.78125 300.539062 198.054688 298.859375 198.269531 C 297.179688 198.488281 295.488281 198.652344 293.78125 198.761719 C 292.078125 198.871094 290.367188 198.925781 288.65625 198.925781 C 286.941406 198.925781 285.234375 198.871094 283.527344 198.761719 C 281.824219 198.652344 280.132812 198.488281 278.453125 198.269531 C 276.773438 198.054688 275.113281 197.78125 273.472656 197.460938 C 271.832031 197.136719 270.222656 196.761719 268.640625 196.335938 C 267.058594 195.90625 265.511719 195.429688 264 194.90625 C 262.488281 194.382812 261.019531 193.808594 259.597656 193.1875 C 258.171875 192.570312 256.796875 191.90625 255.472656 191.199219 C 254.148438 190.492188 252.882812 189.746094 251.671875 188.957031 C 250.460938 188.167969 249.3125 187.34375 248.222656 186.484375 C 247.136719 185.621094 246.117188 184.726562 245.167969 183.800781 C 244.214844 182.875 243.335938 181.917969 242.527344 180.9375 C 241.71875 179.953125 240.988281 178.945312 240.332031 177.917969 C 239.675781 176.886719 239.101562 175.839844 238.605469 174.773438 C 238.105469 173.707031 237.691406 172.625 237.355469 171.535156 C 237.023438 170.441406 236.769531 169.339844 236.605469 168.230469 C 236.4375 167.121094 236.351562 166.007812 236.351562 164.894531 C 236.351562 163.78125 236.4375 162.667969 236.605469 161.558594 C 236.769531 160.449219 237.023438 159.347656 237.355469 158.257812 C 237.691406 157.164062 238.105469 156.082031 238.605469 155.015625 C 239.101562 153.949219 239.675781 152.902344 240.332031 151.871094 C 240.988281 150.84375 241.71875 149.835938 242.527344 148.855469 C 243.335938 147.871094 244.214844 146.914062 245.167969 145.988281 C 246.117188 145.0625 247.136719 144.167969 248.222656 143.308594 C 249.3125 142.445312 250.460938 141.621094 251.671875 140.832031 C 252.882812 140.042969 254.148438 139.296875 255.472656 138.589844 C 256.796875 137.882812 258.171875 137.21875 259.597656 136.601562 C 261.019531 135.980469 262.488281 135.410156 264 134.882812 C 265.511719 134.359375 267.058594 133.882812 268.640625 133.457031 C 270.222656 133.03125 271.832031 132.65625 273.472656 132.332031 C 275.113281 132.007812 276.773438 131.738281 278.453125 131.519531 C 280.132812 131.300781 281.824219 131.140625 283.527344 131.03125 C 285.234375 130.921875 286.941406 130.867188 288.65625 130.867188 C 290.367188 130.867188 292.078125 130.921875 293.78125 131.03125 C 295.488281 131.140625 297.179688 131.300781 298.859375 131.519531 C 300.539062 131.738281 302.199219 132.007812 303.839844 132.332031 C 305.476562 132.65625 307.089844 133.03125 308.671875 133.457031 C 310.253906 133.882812 311.800781 134.359375 313.3125 134.882812 C 314.820312 135.410156 316.289062 135.980469 317.714844 136.601562 C 319.136719 137.21875 320.511719 137.882812 321.835938 138.589844 C 323.160156 139.296875 324.429688 140.042969 325.640625 140.832031 C 326.851562 141.621094 328 142.445312 329.085938 143.308594 C 330.171875 144.167969 331.191406 145.0625 332.144531 145.988281 C 333.097656 146.914062 333.976562 147.871094 334.785156 148.855469 C 335.589844 149.835938 336.324219 150.84375 336.976562 151.871094 C 337.632812 152.902344 338.210938 153.949219 338.707031 155.015625 C 339.203125 156.082031 339.621094 157.164062 339.953125 158.257812 C 340.289062 159.347656 340.539062 160.449219 340.707031 161.558594 C 340.875 162.667969 340.960938 163.78125 340.960938 164.894531 Z M 340.960938 164.894531 " fill-opacity="1" fill-rule="nonzero"/><path fill="#e83f60" d="M 340.863281 157.667969 C 340.863281 158.78125 340.78125 159.894531 340.613281 161.003906 C 340.445312 162.109375 340.195312 163.210938 339.859375 164.304688 C 339.527344 165.398438 339.109375 166.476562 338.613281 167.546875 C 338.117188 168.613281 337.539062 169.660156 336.882812 170.6875 C 336.226562 171.71875 335.496094 172.726562 334.6875 173.707031 C 333.882812 174.691406 333 175.644531 332.050781 176.574219 C 331.097656 177.5 330.078125 178.394531 328.992188 179.253906 C 327.90625 180.117188 326.757812 180.941406 325.546875 181.730469 C 324.335938 182.519531 323.066406 183.265625 321.742188 183.972656 C 320.417969 184.679688 319.042969 185.34375 317.621094 185.960938 C 316.195312 186.582031 314.726562 187.152344 313.214844 187.679688 C 311.707031 188.203125 310.160156 188.679688 308.578125 189.105469 C 306.992188 189.53125 305.382812 189.90625 303.742188 190.230469 C 302.105469 190.554688 300.445312 190.824219 298.765625 191.042969 C 297.085938 191.261719 295.390625 191.425781 293.6875 191.53125 C 291.984375 191.640625 290.273438 191.695312 288.5625 191.695312 C 286.847656 191.695312 285.140625 191.640625 283.433594 191.53125 C 281.730469 191.425781 280.035156 191.261719 278.355469 191.042969 C 276.675781 190.824219 275.015625 190.554688 273.378906 190.230469 C 271.738281 189.90625 270.128906 189.53125 268.546875 189.105469 C 266.960938 188.679688 265.414062 188.203125 263.90625 187.679688 C 262.394531 187.152344 260.925781 186.582031 259.503906 185.960938 C 258.078125 185.34375 256.703125 184.679688 255.378906 183.972656 C 254.054688 183.265625 252.789062 182.519531 251.578125 181.730469 C 250.363281 180.941406 249.214844 180.117188 248.128906 179.253906 C 247.042969 178.394531 246.023438 177.5 245.070312 176.574219 C 244.121094 175.644531 243.242188 174.691406 242.433594 173.707031 C 241.625 172.726562 240.894531 171.71875 240.238281 170.6875 C 239.582031 169.660156 239.007812 168.613281 238.507812 167.546875 C 238.011719 166.476562 237.597656 165.398438 237.261719 164.304688 C 236.929688 163.210938 236.675781 162.109375 236.507812 161.003906 C 236.339844 159.894531 236.257812 158.78125 236.257812 157.667969 C 236.257812 156.550781 236.339844 155.441406 236.507812 154.332031 C 236.675781 153.222656 236.929688 152.121094 237.261719 151.027344 C 237.597656 149.933594 238.011719 148.855469 238.507812 147.789062 C 239.007812 146.722656 239.582031 145.671875 240.238281 144.644531 C 240.894531 143.613281 241.625 142.609375 242.433594 141.625 C 243.242188 140.640625 244.121094 139.6875 245.070312 138.761719 C 246.023438 137.832031 247.042969 136.9375 248.128906 136.078125 C 249.214844 135.214844 250.363281 134.390625 251.578125 133.601562 C 252.789062 132.816406 254.054688 132.066406 255.378906 131.359375 C 256.703125 130.652344 258.078125 129.988281 259.503906 129.371094 C 260.925781 128.75 262.394531 128.179688 263.90625 127.652344 C 265.414062 127.128906 266.960938 126.652344 268.546875 126.226562 C 270.128906 125.800781 271.738281 125.425781 273.378906 125.101562 C 275.015625 124.777344 276.675781 124.507812 278.355469 124.289062 C 280.035156 124.070312 281.730469 123.910156 283.433594 123.800781 C 285.140625 123.691406 286.847656 123.636719 288.5625 123.636719 C 290.273438 123.636719 291.984375 123.691406 293.6875 123.800781 C 295.390625 123.910156 297.085938 124.070312 298.765625 124.289062 C 300.445312 124.507812 302.105469 124.777344 303.742188 125.101562 C 305.382812 125.425781 306.992188 125.800781 308.578125 126.226562 C 310.160156 126.652344 311.707031 127.128906 313.214844 127.652344 C 314.726562 128.179688 316.195312 128.75 317.621094 129.371094 C 319.042969 129.988281 320.417969 130.652344 321.742188 131.359375 C 323.066406 132.066406 324.335938 132.816406 325.546875 133.601562 C 326.757812 134.390625 327.90625 135.214844 328.992188 136.078125 C 330.078125 136.9375 331.097656 137.832031 332.050781 138.761719 C 333 139.6875 333.882812 140.640625 334.6875 141.625 C 335.496094 142.609375 336.226562 143.613281 336.882812 144.644531 C 337.539062 145.671875 338.117188 146.722656 338.613281 147.789062 C 339.109375 148.855469 339.527344 149.933594 339.859375 151.027344 C 340.195312 152.121094 340.445312 153.222656 340.613281 154.332031 C 340.78125 155.441406 340.863281 156.550781 340.863281 157.667969 Z M 340.863281 157.667969 " fill-opacity="1" fill-rule="nonzero"/><path fill="#ffd56e" d="M 337.453125 133.808594 C 337.453125 101.460938 307.847656 75.230469 271.351562 75.230469 C 254.097656 75.230469 238.390625 81.09375 226.617188 90.691406 L 69.21875 176.238281 C 67.949219 176.882812 66.707031 177.554688 65.488281 178.269531 L 65.40625 178.3125 C 47.203125 189.007812 35.191406 207.332031 35.191406 228.148438 C 35.191406 238.28125 35.832031 241.539062 42.558594 248.890625 C 53.542969 260.886719 77.933594 270.886719 102.25 270.886719 C 124.359375 270.886719 147.460938 264.371094 159.96875 254.203125 L 316.875 166.054688 C 319.535156 164.777344 322.007812 163.398438 324.238281 161.917969 L 324.257812 161.90625 L 324.253906 161.90625 C 327.1875 159.957031 329.707031 157.839844 331.710938 155.582031 C 338.046875 148.441406 337.453125 143.511719 337.453125 133.808594 Z M 337.453125 133.808594 " fill-opacity="1" fill-rule="nonzero"/><g clip-path="url(#b7362be3ab)"><path fill="#f9b360" d="M 337.453125 121.164062 C 337.453125 88.820312 307.847656 62.582031 271.351562 62.582031 C 254.097656 62.582031 238.390625 68.449219 226.617188 78.046875 L 69.21875 163.59375 C 67.949219 164.238281 66.707031 164.914062 65.488281 165.625 L 65.40625 165.667969 L 65.40625 165.671875 C 47.203125 176.363281 35.191406 194.6875 35.191406 215.503906 C 35.191406 225.636719 35.832031 228.894531 42.558594 236.246094 C 53.542969 248.242188 77.933594 258.242188 102.25 258.242188 C 124.359375 258.242188 147.460938 251.726562 159.96875 241.558594 L 316.875 153.410156 C 319.535156 152.132812 322.007812 150.753906 324.238281 149.273438 L 324.257812 149.261719 L 324.253906 149.261719 C 327.1875 147.3125 329.707031 145.195312 331.710938 142.9375 C 338.046875 135.796875 337.453125 130.867188 337.453125 121.164062 Z M 337.453125 121.164062 " fill-opacity="1" fill-rule="nonzero"/></g><path fill="#ea9052" d="M 77.179688 178.226562 C 77.179688 168.4375 86.140625 160.5 97.183594 160.5 C 102.40625 160.5 107.160156 162.273438 110.722656 165.179688 L 158.355469 191.066406 C 158.738281 191.261719 159.117188 191.464844 159.484375 191.679688 L 159.507812 191.695312 C 165.019531 194.933594 168.652344 200.476562 168.652344 206.777344 C 168.652344 209.84375 168.460938 210.828125 166.425781 213.054688 C 163.101562 216.6875 155.71875 219.710938 148.359375 219.710938 C 141.671875 219.710938 134.679688 217.738281 130.894531 214.660156 L 83.410156 187.984375 C 82.605469 187.597656 81.855469 187.179688 81.179688 186.730469 L 81.175781 186.730469 C 80.289062 186.140625 79.527344 185.496094 78.921875 184.816406 C 77 182.65625 77.179688 181.164062 77.179688 178.226562 Z M 77.179688 178.226562 " fill-opacity="1" fill-rule="nonzero"/><path fill="#f9b360" d="M 87.441406 182.457031 C 87.441406 174.839844 94.414062 168.664062 103.007812 168.664062 C 107.070312 168.664062 110.769531 170.042969 113.542969 172.304688 L 150.605469 192.445312 C 150.90625 192.597656 151.199219 192.757812 151.484375 192.925781 L 151.503906 192.9375 C 155.789062 195.453125 158.617188 199.769531 158.617188 204.671875 C 158.617188 207.054688 158.464844 207.824219 156.882812 209.554688 C 154.296875 212.378906 148.554688 214.734375 142.828125 214.734375 C 137.621094 214.734375 132.179688 213.203125 129.234375 210.808594 L 92.289062 190.050781 C 91.664062 189.75 91.078125 189.425781 90.554688 189.074219 L 90.550781 189.074219 C 89.859375 188.613281 89.265625 188.113281 88.792969 187.585938 C 87.304688 185.902344 87.441406 184.738281 87.441406 182.457031 Z M 87.441406 182.457031 " fill-opacity="1" fill-rule="nonzero"/><path fill="#ea9052" d="M 144.878906 143.007812 C 144.878906 133.222656 153.839844 125.285156 164.882812 125.285156 C 170.105469 125.285156 174.859375 127.058594 178.421875 129.964844 L 226.054688 155.851562 C 226.441406 156.046875 226.816406 156.25 227.183594 156.464844 L 227.207031 156.480469 C 232.71875 159.71875 236.351562 165.265625 236.351562 171.5625 C 236.351562 174.625 236.160156 175.613281 234.125 177.839844 C 230.796875 181.46875 223.417969 184.492188 216.058594 184.492188 C 209.367188 184.492188 202.375 182.519531 198.589844 179.445312 L 151.109375 152.769531 C 150.304688 152.382812 149.554688 151.964844 148.878906 151.515625 L 148.875 151.515625 L 148.875 151.511719 C 147.988281 150.921875 147.226562 150.28125 146.617188 149.597656 C 144.699219 147.441406 144.878906 145.949219 144.878906 143.007812 Z M 144.878906 143.007812 " fill-opacity="1" fill-rule="nonzero"/><path fill="#ea9052" d="M 214.890625 102.429688 C 214.890625 92.644531 223.851562 84.703125 234.894531 84.703125 C 240.117188 84.703125 244.871094 86.480469 248.433594 89.382812 L 296.066406 115.273438 C 296.449219 115.46875 296.828125 115.667969 297.195312 115.882812 L 297.21875 115.898438 C 302.730469 119.136719 306.363281 124.679688 306.363281 130.980469 C 306.363281 134.046875 306.171875 135.035156 304.136719 137.257812 C 300.8125 140.890625 293.429688 143.914062 286.070312 143.914062 C 279.382812 143.914062 272.390625 141.941406 268.605469 138.863281 L 221.121094 112.1875 C 220.3125 111.804688 219.566406 111.386719 218.890625 110.9375 L 218.886719 110.933594 C 218 110.34375 217.234375 109.703125 216.628906 109.023438 C 214.710938 106.859375 214.890625 105.371094 214.890625 102.429688 Z M 214.890625 102.429688 " fill-opacity="1" fill-rule="nonzero"/><path fill="#f9b360" d="M 152.535156 145.644531 C 152.535156 138.03125 159.507812 131.851562 168.101562 131.851562 C 172.164062 131.851562 175.863281 133.234375 178.636719 135.496094 L 215.699219 155.636719 C 215.996094 155.789062 216.289062 155.945312 216.578125 156.113281 L 216.597656 156.125 C 220.882812 158.648438 223.710938 162.960938 223.710938 167.863281 C 223.710938 170.246094 223.558594 171.015625 221.976562 172.746094 C 219.390625 175.570312 213.648438 177.925781 207.921875 177.925781 C 202.714844 177.925781 197.273438 176.394531 194.332031 174 L 157.382812 153.242188 C 156.757812 152.941406 156.171875 152.617188 155.648438 152.265625 L 155.644531 152.265625 L 155.644531 152.261719 C 154.953125 151.808594 154.359375 151.308594 153.886719 150.777344 C 152.394531 149.09375 152.535156 147.933594 152.535156 145.644531 Z M 152.535156 145.644531 " fill-opacity="1" fill-rule="nonzero"/><path fill="#f9b360" d="M 225.039062 105.066406 C 225.039062 97.449219 232.011719 91.273438 240.605469 91.273438 C 244.667969 91.273438 248.367188 92.65625 251.140625 94.914062 L 288.203125 115.058594 C 288.5 115.207031 288.792969 115.367188 289.082031 115.535156 L 289.101562 115.546875 C 293.386719 118.066406 296.214844 122.378906 296.214844 127.28125 C 296.214844 129.667969 296.0625 130.433594 294.480469 132.167969 C 291.894531 134.992188 286.152344 137.34375 280.425781 137.34375 C 275.21875 137.34375 269.777344 135.8125 266.832031 133.417969 L 229.886719 112.660156 C 229.257812 112.359375 228.675781 112.035156 228.152344 111.6875 L 228.148438 111.683594 C 227.457031 111.226562 226.863281 110.726562 226.394531 110.195312 C 224.902344 108.511719 225.039062 107.351562 225.039062 105.066406 Z M 225.039062 105.066406 " fill-opacity="1" fill-rule="nonzero"/></svg>