<svg xmlns="http://www.w3.org/2000/svg" xmlns:xlink="http://www.w3.org/1999/xlink" width="500" zoomAndPan="magnify" viewBox="0 0 375 374.999991" height="500" preserveAspectRatio="xMidYMid meet" version="1.0"><defs><clipPath id="01dcd019a8"><path d="M 77.011719 77.148438 L 298.261719 77.148438 L 298.261719 297.648438 L 77.011719 297.648438 Z M 77.011719 77.148438 " clip-rule="nonzero"/></clipPath></defs><g clip-path="url(#01dcd019a8)"><path fill="#ffffff" d="M 298.148438 297.671875 L 77.167969 297.671875 L 77.167969 77.171875 L 298.148438 77.171875 L 298.148438 297.671875 " fill-opacity="1" fill-rule="nonzero"/></g><path fill="#b2e5e4" d="M 286.171875 249.269531 L 89.144531 249.269531 L 89.144531 88.527344 L 286.171875 88.527344 L 286.171875 249.269531 " fill-opacity="1" fill-rule="nonzero"/><path fill="#80cc28" d="M 90.261719 249.269531 C 90.261719 249.269531 115.414062 175.769531 148.949219 175.769531 C 182.484375 175.769531 174.101562 228.953125 193.265625 228.953125 C 212.429688 228.953125 234.585938 135.136719 251.953125 135.136719 C 269.320312 135.136719 281.460938 182.34375 286.171875 182.34375 L 286.171875 249.269531 L 90.261719 249.269531 " fill-opacity="1" fill-rule="nonzero"/><path fill="#ffffff" d="M 95.53125 163.320312 L 145.289062 163.320312 C 145.289062 163.320312 148.109375 152.402344 139.640625 152.402344 C 139.640625 152.402344 142.464844 142.898438 130.113281 142.898438 C 113.175781 142.898438 117.765625 156.277344 117.765625 156.277344 C 117.765625 156.277344 114.804688 146.855469 106.660156 149.777344 C 100.792969 151.878906 104.351562 157.683594 104.351562 157.683594 C 104.351562 157.683594 95.53125 154.867188 95.53125 163.320312 " fill-opacity="1" fill-rule="nonzero"/><path fill="#ffffff" d="M 170.527344 125.097656 L 237.441406 125.097656 C 237.441406 125.097656 241.238281 110.417969 229.847656 110.417969 C 229.847656 110.417969 233.644531 97.632812 217.035156 97.632812 C 194.257812 97.632812 200.425781 115.625 200.425781 115.625 C 200.425781 115.625 196.449219 102.957031 185.496094 106.886719 C 177.601562 109.714844 182.390625 117.523438 182.390625 117.523438 C 182.390625 117.523438 170.527344 113.734375 170.527344 125.097656 " fill-opacity="1" fill-rule="nonzero"/><path fill="#9cd644" d="M 111.175781 215.492188 C 111.175781 215.492188 124.710938 196.875 129.828125 198.699219 C 134.953125 200.523438 128.734375 223.523438 143.730469 223.523438 C 158.730469 223.523438 148.851562 191.398438 156.535156 195.046875 C 164.21875 198.699219 166.777344 219.875 176.289062 216.222656 C 177.929688 215.59375 178.949219 213.792969 179.382812 211.273438 C 174.320312 195.796875 169.527344 175.769531 148.949219 175.769531 C 131.449219 175.769531 116.238281 195.78125 105.6875 214.921875 C 107.414062 219.242188 111.175781 215.492188 111.175781 215.492188 " fill-opacity="1" fill-rule="nonzero"/><path fill="#9cd644" d="M 232.628906 173.511719 C 239.945312 176.070312 246.527344 153.4375 249.820312 156.722656 C 253.117188 160.007812 253.117188 174.609375 261.894531 174.609375 C 270.675781 174.609375 259.699219 154.164062 263.722656 154.164062 C 267.75 154.164062 270.605469 175.367188 279.785156 171.703125 C 273.503906 157.78125 263.980469 135.136719 251.953125 135.136719 C 244.695312 135.136719 236.597656 151.53125 228.234375 170.613281 C 228.957031 171.652344 230.285156 172.695312 232.628906 173.511719 " fill-opacity="1" fill-rule="nonzero"/></svg>