<svg xmlns="http://www.w3.org/2000/svg" xmlns:xlink="http://www.w3.org/1999/xlink" width="500" zoomAndPan="magnify" viewBox="0 0 375 374.999991" height="500" preserveAspectRatio="xMidYMid meet" version="1.0"><defs><clipPath id="38497a1a21"><path d="M 39 39 L 336 39 L 336 336 L 39 336 Z M 39 39 " clip-rule="nonzero"/></clipPath><clipPath id="684f9e9b49"><path d="M 137.1875 39.671875 L 335.636719 137.496094 L 238.144531 335.269531 L 39.695312 237.449219 Z M 137.1875 39.671875 " clip-rule="nonzero"/></clipPath><clipPath id="810695edb8"><path d="M 137.1875 39.671875 L 335.636719 137.496094 L 238.144531 335.269531 L 39.695312 237.449219 Z M 137.1875 39.671875 " clip-rule="nonzero"/></clipPath><clipPath id="f06e9e1466"><path d="M 137.1875 39.671875 L 335.636719 137.496094 L 238.144531 335.269531 L 39.695312 237.449219 Z M 137.1875 39.671875 " clip-rule="nonzero"/></clipPath><clipPath id="d3c5428a40"><path d="M 71 55 L 320 55 L 320 287 L 71 287 Z M 71 55 " clip-rule="nonzero"/></clipPath><clipPath id="9f829b38fc"><path d="M 137.1875 39.671875 L 335.636719 137.496094 L 238.144531 335.269531 L 39.695312 237.449219 Z M 137.1875 39.671875 " clip-rule="nonzero"/></clipPath><clipPath id="ee70d4c3e5"><path d="M 137.1875 39.671875 L 335.636719 137.496094 L 238.144531 335.269531 L 39.695312 237.449219 Z M 137.1875 39.671875 " clip-rule="nonzero"/></clipPath><clipPath id="d63337c8c6"><path d="M 137.1875 39.671875 L 335.636719 137.496094 L 238.144531 335.269531 L 39.695312 237.449219 Z M 137.1875 39.671875 " clip-rule="nonzero"/></clipPath><clipPath id="967e973630"><path d="M 72 157 L 279 157 L 279 287 L 72 287 Z M 72 157 " clip-rule="nonzero"/></clipPath><clipPath id="f0cb55d296"><path d="M 137.1875 39.671875 L 335.636719 137.496094 L 238.144531 335.269531 L 39.695312 237.449219 Z M 137.1875 39.671875 " clip-rule="nonzero"/></clipPath><clipPath id="ce340938bf"><path d="M 137.1875 39.671875 L 335.636719 137.496094 L 238.144531 335.269531 L 39.695312 237.449219 Z M 137.1875 39.671875 " clip-rule="nonzero"/></clipPath><clipPath id="47a15b6300"><path d="M 137.1875 39.671875 L 335.636719 137.496094 L 238.144531 335.269531 L 39.695312 237.449219 Z M 137.1875 39.671875 " clip-rule="nonzero"/></clipPath><clipPath id="6766b185da"><path d="M 115 117 L 164 117 L 164 148 L 115 148 Z M 115 117 " clip-rule="nonzero"/></clipPath><clipPath id="ef4a2f5d67"><path d="M 137.1875 39.671875 L 335.636719 137.496094 L 238.144531 335.269531 L 39.695312 237.449219 Z M 137.1875 39.671875 " clip-rule="nonzero"/></clipPath><clipPath id="4deb9994aa"><path d="M 137.1875 39.671875 L 335.636719 137.496094 L 238.144531 335.269531 L 39.695312 237.449219 Z M 137.1875 39.671875 " clip-rule="nonzero"/></clipPath><clipPath id="ad684689b1"><path d="M 137.1875 39.671875 L 335.636719 137.496094 L 238.144531 335.269531 L 39.695312 237.449219 Z M 137.1875 39.671875 " clip-rule="nonzero"/></clipPath><clipPath id="18cebdeb2c"><path d="M 199 114 L 265 114 L 265 154 L 199 154 Z M 199 114 " clip-rule="nonzero"/></clipPath><clipPath id="8cc113d599"><path d="M 137.1875 39.671875 L 335.636719 137.496094 L 238.144531 335.269531 L 39.695312 237.449219 Z M 137.1875 39.671875 " clip-rule="nonzero"/></clipPath><clipPath id="a11a123013"><path d="M 137.1875 39.671875 L 335.636719 137.496094 L 238.144531 335.269531 L 39.695312 237.449219 Z M 137.1875 39.671875 " clip-rule="nonzero"/></clipPath><clipPath id="277118424d"><path d="M 137.1875 39.671875 L 335.636719 137.496094 L 238.144531 335.269531 L 39.695312 237.449219 Z M 137.1875 39.671875 " clip-rule="nonzero"/></clipPath><clipPath id="eb177944ed"><path d="M 101 157 L 172 157 L 172 209 L 101 209 Z M 101 157 " clip-rule="nonzero"/></clipPath><clipPath id="ff47a1c0e1"><path d="M 137.1875 39.671875 L 335.636719 137.496094 L 238.144531 335.269531 L 39.695312 237.449219 Z M 137.1875 39.671875 " clip-rule="nonzero"/></clipPath><clipPath id="429f1c92e3"><path d="M 137.1875 39.671875 L 335.636719 137.496094 L 238.144531 335.269531 L 39.695312 237.449219 Z M 137.1875 39.671875 " clip-rule="nonzero"/></clipPath><clipPath id="6d51d73653"><path d="M 137.1875 39.671875 L 335.636719 137.496094 L 238.144531 335.269531 L 39.695312 237.449219 Z M 137.1875 39.671875 " clip-rule="nonzero"/></clipPath><clipPath id="ff97107a8e"><path d="M 231 168 L 278 168 L 278 215 L 231 215 Z M 231 168 " clip-rule="nonzero"/></clipPath><clipPath id="bb15813aff"><path d="M 137.1875 39.671875 L 335.636719 137.496094 L 238.144531 335.269531 L 39.695312 237.449219 Z M 137.1875 39.671875 " clip-rule="nonzero"/></clipPath><clipPath id="1bf3a62403"><path d="M 137.1875 39.671875 L 335.636719 137.496094 L 238.144531 335.269531 L 39.695312 237.449219 Z M 137.1875 39.671875 " clip-rule="nonzero"/></clipPath><clipPath id="b5906f610f"><path d="M 137.1875 39.671875 L 335.636719 137.496094 L 238.144531 335.269531 L 39.695312 237.449219 Z M 137.1875 39.671875 " clip-rule="nonzero"/></clipPath></defs><g clip-path="url(#38497a1a21)"><g clip-path="url(#684f9e9b49)"><g clip-path="url(#810695edb8)"><g clip-path="url(#f06e9e1466)"><path fill="#ffffff" d="M 238.03125 335.242188 L 39.824219 237.539062 L 137.316406 39.761719 L 335.523438 137.464844 L 238.03125 335.242188 " fill-opacity="1" fill-rule="nonzero"/></g></g></g></g><g clip-path="url(#d3c5428a40)"><g clip-path="url(#9f829b38fc)"><g clip-path="url(#ee70d4c3e5)"><g clip-path="url(#d63337c8c6)"><path fill="#b2e5e4" d="M 248.691406 286.53125 L 71.96875 199.421875 L 143.039062 55.242188 L 319.761719 142.355469 L 248.691406 286.53125 " fill-opacity="1" fill-rule="nonzero"/></g></g></g></g><g clip-path="url(#967e973630)"><g clip-path="url(#f0cb55d296)"><g clip-path="url(#ce340938bf)"><g clip-path="url(#47a15b6300)"><path fill="#80cc28" d="M 72.96875 199.914062 C 72.96875 199.914062 128.027344 145.109375 158.105469 159.9375 C 188.1875 174.765625 157.152344 218.757812 174.339844 227.230469 C 191.53125 235.707031 252.882812 161.351562 268.460938 169.03125 C 284.039062 176.710938 274.058594 224.421875 278.28125 226.503906 L 248.691406 286.53125 L 72.96875 199.914062 " fill-opacity="1" fill-rule="nonzero"/></g></g></g></g><g clip-path="url(#6766b185da)"><g clip-path="url(#ef4a2f5d67)"><g clip-path="url(#4deb9994aa)"><g clip-path="url(#ad684689b1)"><path fill="#ffffff" d="M 115.699219 125.152344 L 160.328125 147.148438 C 160.328125 147.148438 167.683594 138.605469 160.089844 134.859375 C 160.089844 134.859375 166.824219 127.585938 155.746094 122.125 C 140.554688 114.636719 138.753906 128.664062 138.753906 128.664062 C 138.753906 128.664062 140.265625 118.90625 131.667969 117.925781 C 125.476562 117.214844 126.101562 123.996094 126.101562 123.996094 C 126.101562 123.996094 119.433594 117.570312 115.699219 125.152344 " fill-opacity="1" fill-rule="nonzero"/></g></g></g></g><g clip-path="url(#18cebdeb2c)"><g clip-path="url(#8cc113d599)"><g clip-path="url(#a11a123013)"><g clip-path="url(#277118424d)"><path fill="#ffffff" d="M 199.863281 124.027344 L 259.882812 153.613281 C 259.882812 153.613281 269.78125 142.125 259.5625 137.089844 C 259.5625 137.089844 268.621094 127.296875 253.722656 119.953125 C 233.292969 109.882812 230.871094 128.75 230.871094 128.75 C 230.871094 128.75 232.90625 115.628906 221.34375 114.308594 C 213.011719 113.359375 213.855469 122.476562 213.855469 122.476562 C 213.855469 122.476562 204.890625 113.832031 199.863281 124.027344 " fill-opacity="1" fill-rule="nonzero"/></g></g></g></g><g clip-path="url(#eb177944ed)"><g clip-path="url(#ff47a1c0e1)"><g clip-path="url(#429f1c92e3)"><g clip-path="url(#6d51d73653)"><path fill="#9cd644" d="M 106.660156 178.863281 C 106.660156 178.863281 127.035156 168.148438 130.820312 172.050781 C 134.609375 175.953125 118.859375 193.832031 132.3125 200.460938 C 145.769531 207.09375 151.109375 173.914062 156.386719 180.582031 C 161.664062 187.253906 154.601562 207.378906 164.746094 208.308594 C 166.492188 208.46875 168.203125 207.304688 169.707031 205.234375 C 172.011719 189.117188 176.566406 169.035156 158.105469 159.9375 C 142.410156 152.199219 119.917969 163.421875 101.992188 175.921875 C 101.628906 180.5625 106.660156 178.863281 106.660156 178.863281 " fill-opacity="1" fill-rule="nonzero"/></g></g></g></g><g clip-path="url(#ff97107a8e)"><g clip-path="url(#bb15813aff)"><g clip-path="url(#1bf3a62403)"><g clip-path="url(#b5906f610f)"><path fill="#9cd644" d="M 234.160156 194.910156 C 239.59375 200.4375 255.503906 183.046875 257.007812 187.449219 C 258.507812 191.855469 252.050781 204.949219 259.925781 208.832031 C 267.800781 212.714844 266.996094 189.523438 270.605469 191.304688 C 274.214844 193.082031 267.402344 213.363281 277.257812 214.136719 C 277.777344 198.871094 279.25 174.351562 268.460938 169.03125 C 261.949219 165.824219 247.4375 176.945312 231.5 190.363281 C 231.691406 191.617188 232.421875 193.136719 234.160156 194.910156 " fill-opacity="1" fill-rule="nonzero"/></g></g></g></g></svg>