<svg xmlns="http://www.w3.org/2000/svg" xmlns:xlink="http://www.w3.org/1999/xlink" width="500" zoomAndPan="magnify" viewBox="0 0 375 374.999991" height="500" preserveAspectRatio="xMidYMid meet" version="1.0"><defs><clipPath id="1865556cf1"><path d="M 44 44 L 332 44 L 332 331 L 44 331 Z M 44 44 " clip-rule="nonzero"/></clipPath><clipPath id="96949df1cb"><path d="M 43.984375 125.945312 L 249.484375 43.960938 L 331.191406 248.761719 L 125.691406 330.746094 Z M 43.984375 125.945312 " clip-rule="nonzero"/></clipPath><clipPath id="dd79882f19"><path d="M 43.984375 125.945312 L 249.484375 43.960938 L 331.191406 248.761719 L 125.691406 330.746094 Z M 43.984375 125.945312 " clip-rule="nonzero"/></clipPath><clipPath id="58912672bc"><path d="M 43.984375 125.945312 L 249.484375 43.960938 L 331.191406 248.761719 L 125.691406 330.746094 Z M 43.984375 125.945312 " clip-rule="nonzero"/></clipPath><clipPath id="4d1ac2fbb0"><path d="M 59 59 L 303 59 L 303 282 L 59 282 Z M 59 59 " clip-rule="nonzero"/></clipPath><clipPath id="cf20e7d4d1"><path d="M 43.984375 125.945312 L 249.484375 43.960938 L 331.191406 248.761719 L 125.691406 330.746094 Z M 43.984375 125.945312 " clip-rule="nonzero"/></clipPath><clipPath id="b41c924307"><path d="M 43.984375 125.945312 L 249.484375 43.960938 L 331.191406 248.761719 L 125.691406 330.746094 Z M 43.984375 125.945312 " clip-rule="nonzero"/></clipPath><clipPath id="3cc70d0987"><path d="M 43.984375 125.945312 L 249.484375 43.960938 L 331.191406 248.761719 L 125.691406 330.746094 Z M 43.984375 125.945312 " clip-rule="nonzero"/></clipPath><clipPath id="e3534c272f"><path d="M 119 114 L 303 114 L 303 281 L 119 281 Z M 119 114 " clip-rule="nonzero"/></clipPath><clipPath id="2d0a039834"><path d="M 43.984375 125.945312 L 249.484375 43.960938 L 331.191406 248.761719 L 125.691406 330.746094 Z M 43.984375 125.945312 " clip-rule="nonzero"/></clipPath><clipPath id="c740ca501a"><path d="M 43.984375 125.945312 L 249.484375 43.960938 L 331.191406 248.761719 L 125.691406 330.746094 Z M 43.984375 125.945312 " clip-rule="nonzero"/></clipPath><clipPath id="5e34d7b414"><path d="M 43.984375 125.945312 L 249.484375 43.960938 L 331.191406 248.761719 L 125.691406 330.746094 Z M 43.984375 125.945312 " clip-rule="nonzero"/></clipPath><clipPath id="aca2692ea2"><path d="M 92 166 L 140 166 L 140 200 L 92 200 Z M 92 166 " clip-rule="nonzero"/></clipPath><clipPath id="0e18aa6fdc"><path d="M 43.984375 125.945312 L 249.484375 43.960938 L 331.191406 248.761719 L 125.691406 330.746094 Z M 43.984375 125.945312 " clip-rule="nonzero"/></clipPath><clipPath id="9b8926d9fb"><path d="M 43.984375 125.945312 L 249.484375 43.960938 L 331.191406 248.761719 L 125.691406 330.746094 Z M 43.984375 125.945312 " clip-rule="nonzero"/></clipPath><clipPath id="720a4b786d"><path d="M 43.984375 125.945312 L 249.484375 43.960938 L 331.191406 248.761719 L 125.691406 330.746094 Z M 43.984375 125.945312 " clip-rule="nonzero"/></clipPath><clipPath id="49efe9d3c1"><path d="M 147 91 L 211 91 L 211 136 L 147 136 Z M 147 91 " clip-rule="nonzero"/></clipPath><clipPath id="2a2f3eeaa2"><path d="M 43.984375 125.945312 L 249.484375 43.960938 L 331.191406 248.761719 L 125.691406 330.746094 Z M 43.984375 125.945312 " clip-rule="nonzero"/></clipPath><clipPath id="a7aaae156b"><path d="M 43.984375 125.945312 L 249.484375 43.960938 L 331.191406 248.761719 L 125.691406 330.746094 Z M 43.984375 125.945312 " clip-rule="nonzero"/></clipPath><clipPath id="85622c672d"><path d="M 43.984375 125.945312 L 249.484375 43.960938 L 331.191406 248.761719 L 125.691406 330.746094 Z M 43.984375 125.945312 " clip-rule="nonzero"/></clipPath><clipPath id="d72dec6b53"><path d="M 121 188 L 190 188 L 190 245 L 121 245 Z M 121 188 " clip-rule="nonzero"/></clipPath><clipPath id="e61000f6f2"><path d="M 43.984375 125.945312 L 249.484375 43.960938 L 331.191406 248.761719 L 125.691406 330.746094 Z M 43.984375 125.945312 " clip-rule="nonzero"/></clipPath><clipPath id="36d0640318"><path d="M 43.984375 125.945312 L 249.484375 43.960938 L 331.191406 248.761719 L 125.691406 330.746094 Z M 43.984375 125.945312 " clip-rule="nonzero"/></clipPath><clipPath id="e9ca3469f5"><path d="M 43.984375 125.945312 L 249.484375 43.960938 L 331.191406 248.761719 L 125.691406 330.746094 Z M 43.984375 125.945312 " clip-rule="nonzero"/></clipPath><clipPath id="9d7dd98f0c"><path d="M 219 114 L 268 114 L 268 158 L 219 158 Z M 219 114 " clip-rule="nonzero"/></clipPath><clipPath id="d0d2596164"><path d="M 43.984375 125.945312 L 249.484375 43.960938 L 331.191406 248.761719 L 125.691406 330.746094 Z M 43.984375 125.945312 " clip-rule="nonzero"/></clipPath><clipPath id="79aff11363"><path d="M 43.984375 125.945312 L 249.484375 43.960938 L 331.191406 248.761719 L 125.691406 330.746094 Z M 43.984375 125.945312 " clip-rule="nonzero"/></clipPath><clipPath id="e1d09dab27"><path d="M 43.984375 125.945312 L 249.484375 43.960938 L 331.191406 248.761719 L 125.691406 330.746094 Z M 43.984375 125.945312 " clip-rule="nonzero"/></clipPath></defs><g clip-path="url(#1865556cf1)"><g clip-path="url(#96949df1cb)"><g clip-path="url(#dd79882f19)"><g clip-path="url(#58912672bc)"><path fill="#ffffff" d="M 331.09375 248.828125 L 125.847656 330.710938 L 44.140625 125.910156 L 249.390625 44.023438 L 331.09375 248.828125 " fill-opacity="1" fill-rule="nonzero"/></g></g></g></g><g clip-path="url(#4d1ac2fbb0)"><g clip-path="url(#cf20e7d4d1)"><g clip-path="url(#b41c924307)"><g clip-path="url(#3cc70d0987)"><path fill="#b2e5e4" d="M 302.035156 208.308594 L 119.035156 281.316406 L 59.472656 132.015625 L 242.472656 59.007812 L 302.035156 208.308594 " fill-opacity="1" fill-rule="nonzero"/></g></g></g></g><g clip-path="url(#e3534c272f)"><g clip-path="url(#2d0a039834)"><g clip-path="url(#c740ca501a)"><g clip-path="url(#5e34d7b414)"><path fill="#80cc28" d="M 120.070312 280.902344 C 120.070312 280.902344 116.199219 203.316406 147.347656 190.886719 C 178.496094 178.460938 190.414062 230.964844 208.214844 223.863281 C 226.015625 216.761719 211.832031 121.414062 227.960938 114.980469 C 244.09375 108.542969 272.863281 147.890625 277.234375 146.148438 L 302.035156 208.308594 L 120.070312 280.902344 " fill-opacity="1" fill-rule="nonzero"/></g></g></g></g><g clip-path="url(#aca2692ea2)"><g clip-path="url(#0e18aa6fdc)"><g clip-path="url(#9b8926d9fb)"><g clip-path="url(#720a4b786d)"><path fill="#ffffff" d="M 93.117188 199.117188 L 139.332031 180.679688 C 139.332031 180.679688 137.910156 169.496094 130.042969 172.632812 C 130.042969 172.632812 129.144531 162.757812 117.671875 167.335938 C 101.941406 173.609375 111.160156 184.339844 111.160156 184.339844 C 111.160156 184.339844 104.917969 176.683594 98.4375 182.414062 C 93.769531 186.542969 99.222656 190.617188 99.222656 190.617188 C 99.222656 190.617188 89.984375 191.265625 93.117188 199.117188 " fill-opacity="1" fill-rule="nonzero"/></g></g></g></g><g clip-path="url(#49efe9d3c1)"><g clip-path="url(#2a2f3eeaa2)"><g clip-path="url(#a7aaae156b)"><g clip-path="url(#85622c672d)"><path fill="#ffffff" d="M 148.613281 135.828125 L 210.765625 111.03125 C 210.765625 111.03125 208.851562 95.992188 198.273438 100.210938 C 198.273438 100.210938 197.0625 86.929688 181.632812 93.082031 C 160.476562 101.523438 172.875 115.953125 172.875 115.953125 C 172.875 115.953125 164.484375 105.65625 155.765625 113.363281 C 149.484375 118.917969 156.824219 124.394531 156.824219 124.394531 C 156.824219 124.394531 144.402344 125.273438 148.613281 135.828125 " fill-opacity="1" fill-rule="nonzero"/></g></g></g></g><g clip-path="url(#d72dec6b53)"><g clip-path="url(#e61000f6f2)"><g clip-path="url(#36d0640318)"><g clip-path="url(#e9ca3469f5)"><path fill="#9cd644" d="M 126.980469 241.78125 C 126.980469 241.78125 132.652344 219.472656 138.085938 219.269531 C 143.519531 219.066406 146.265625 242.734375 160.195312 237.175781 C 174.128906 231.617188 153.050781 205.441406 161.539062 205.984375 C 170.023438 206.527344 180.25 225.246094 187.730469 218.328125 C 189.019531 217.136719 189.300781 215.089844 188.769531 212.585938 C 178.332031 200.085938 166.460938 183.261719 147.347656 190.886719 C 131.09375 197.371094 124.378906 221.597656 121.671875 243.28125 C 124.875 246.65625 126.980469 241.78125 126.980469 241.78125 " fill-opacity="1" fill-rule="nonzero"/></g></g></g></g><g clip-path="url(#9d7dd98f0c)"><g clip-path="url(#d0d2596164)"><g clip-path="url(#79aff11363)"><g clip-path="url(#e1d09dab27)"><path fill="#9cd644" d="M 224.234375 157.785156 C 231.976562 157.445312 229.703125 133.988281 233.980469 135.816406 C 238.257812 137.648438 243.667969 151.210938 251.824219 147.957031 C 259.976562 144.703125 242.207031 129.78125 245.945312 128.292969 C 249.683594 126.800781 260.195312 145.4375 267.363281 138.628906 C 256.367188 128.027344 239.132812 110.523438 227.960938 114.980469 C 221.21875 117.667969 219.773438 135.894531 219.074219 156.71875 C 220.132812 157.414062 221.753906 157.890625 224.234375 157.785156 " fill-opacity="1" fill-rule="nonzero"/></g></g></g></g></svg>