<svg xmlns="http://www.w3.org/2000/svg" xmlns:xlink="http://www.w3.org/1999/xlink" width="500" zoomAndPan="magnify" viewBox="0 0 375 374.999991" height="500" preserveAspectRatio="xMidYMid meet" version="1.0"><path fill="#000000" d="M 254.910156 136.4375 L 254.917969 136.4375 L 254.917969 136.390625 Z M 254.910156 136.4375 " fill-opacity="1" fill-rule="nonzero"/><path fill="#f2bb30" d="M 281.796875 249.644531 C 299.949219 249.644531 306.660156 236.984375 312.96875 218.007812 C 319.503906 198.460938 319.222656 179.65625 312.96875 154.621094 C 308.46875 136.589844 299.960938 122.980469 281.796875 122.980469 L 258.40625 122.980469 L 258.40625 150.664062 C 258.40625 172.140625 240.1875 190.234375 219.421875 190.234375 L 157.082031 190.234375 C 140.03125 190.234375 125.910156 204.824219 125.910156 221.929688 L 125.910156 281.351562 C 125.910156 298.269531 140.621094 308.195312 157.082031 313.042969 C 176.800781 318.820312 195.78125 319.863281 219.414062 313.042969 C 235.113281 308.492188 250.582031 299.316406 250.582031 281.351562 L 250.582031 257.589844 L 188.296875 257.589844 L 188.296875 249.65625 L 281.796875 249.65625 Z M 223.324219 273.410156 C 229.796875 273.410156 235.058594 278.726562 235.058594 285.261719 C 235.058594 291.863281 229.804688 297.171875 223.324219 297.171875 C 216.894531 297.171875 211.589844 291.800781 211.589844 285.261719 C 211.65625 278.660156 216.917969 273.410156 223.324219 273.410156 Z M 223.324219 273.410156 " fill-opacity="1" fill-rule="nonzero"/><path fill="#35668f" d="M 93.804688 249.65625 L 115.222656 249.65625 L 115.222656 221.167969 C 115.222656 200.5625 133.027344 182.402344 154.207031 182.402344 L 216.535156 182.402344 C 233.871094 182.402344 247.707031 168.109375 247.707031 150.707031 L 247.707031 91.242188 C 247.707031 74.324219 233.46875 61.640625 216.535156 58.796875 C 195.640625 55.34375 172.933594 55.539062 154.207031 58.863281 L 154.214844 58.851562 C 127.828125 63.515625 123.054688 73.253906 123.054688 91.285156 L 123.054688 115.046875 L 185.453125 115.046875 L 185.453125 122.992188 L 99.644531 122.992188 C 81.492188 122.992188 65.605469 133.90625 60.660156 154.628906 C 54.941406 178.394531 54.710938 193.210938 60.660156 218.019531 C 65.082031 236.464844 75.664062 249.65625 93.804688 249.65625 Z M 150.304688 99.175781 C 143.832031 99.175781 138.570312 93.859375 138.570312 87.320312 C 138.648438 80.71875 143.832031 75.414062 150.304688 75.414062 C 156.734375 75.414062 162.039062 80.773438 162.039062 87.320312 C 162.039062 93.867188 156.789062 99.175781 150.304688 99.175781 Z M 150.304688 99.175781 " fill-opacity="1" fill-rule="nonzero"/></svg>